<svg viewBox="650.6999999999998 243 23235.3 10327.5" xmlns="http://www.w3.org/2000/svg" version="1.1" overflow="visible"><desc>Facsimile engraved by Thulemeier 1.0.0 on 2026-08-10</desc><defs><style type="text/css">
    /* .staff * {
      fill: #000;
      stroke: #000;
    }

    .deletionBack {
      fill: #00000033;
    } */

    .rastrum {
      fill: none;
    }

    .deletionBack {
      fill: #00000033;
    }

    .deletionLine {
      stroke: #000000;
    }

    path {
      stroke: #000;
    }
  </style><symbol id="sym_notehead_quarter" viewBox="0 0 1000 1000" overflow="inherit"><path transform="scale(1,-1)" d="M0 -39c0 68 73 172 200 172c66 0 114 -37 114 -95c0 -84 -106 -171 -218 -171c-64 0 -96 30 -96 94z"></path></symbol><symbol id="sym_accid_n" viewBox="0 0 1000 1000" overflow="inherit"><path transform="scale(1,-1)" d="M0 -188v539h18v-191l139 22v-533h-17v186zM18 -100l122 17v176l-122 -19v-174z"></path></symbol><symbol id="sym_accid_s" viewBox="0 0 1000 1000" overflow="inherit"><path transform="scale(1,-1)" d="M136 186v169h17v-164l44 14v-91l-44 -14v-165l44 12v-91l-44 -13v-155h-17v150l-76 -22v-155h-17v149l-43 -13v90l43 14v167l-43 -14v92l43 13v169h17v-163zM60 73v-167l76 22v168z"></path></symbol></defs><g class="rastrums"><g class="rastrum" data-id="r44424e6a-d514-43a7-8224-202d8abc8e8f" style="transform: rotate(0.4deg); transform-origin: 2106px 5022px;"><g class="rastrum bounding-box" data-id="bbox-r44424e6a-d514-43a7-8224-202d8abc8e8f"><rect x="2106" y="5022" width="23778" height="855"></rect></g><path d="M2106 5027 L25884 5027" stroke-width="10" stroke="black"></path><path d="M2106 5238.25 L25884 5238.25" stroke-width="10" stroke="black"></path><path d="M2106 5449.5 L25884 5449.5" stroke-width="10" stroke="black"></path><path d="M2106 5660.75 L25884 5660.75" stroke-width="10" stroke="black"></path><path d="M2106 5872 L25884 5872" stroke-width="10" stroke="black"></path></g><g class="rastrum" data-id="rf620ad7c-c0c9-4a15-b395-34774d017e01" style="transform: rotate(0.4deg); transform-origin: 2106px 6552px;"><g class="rastrum bounding-box" data-id="bbox-rf620ad7c-c0c9-4a15-b395-34774d017e01"><rect x="2106" y="6552" width="23796" height="873"></rect></g><path d="M2106 6557 L25902 6557" stroke-width="10" stroke="black"></path><path d="M2106 6772.75 L25902 6772.75" stroke-width="10" stroke="black"></path><path d="M2106 6988.5 L25902 6988.5" stroke-width="10" stroke="black"></path><path d="M2106 7204.25 L25902 7204.25" stroke-width="10" stroke="black"></path><path d="M2106 7420 L25902 7420" stroke-width="10" stroke="black"></path></g></g><g class="draft" data-label="1" data-id="d66c13847-4363-4206-8f3e-6e45fd1e0a20"><g class="system" data-id="scfa6b139-6485-4bea-9ad5-262b57788f8e"><g class="staff" data-n="1" data-rastrum="r44424e6a-d514-43a7-8224-202d8abc8e8f" style="transform: rotate(0.4deg); transform-origin: 2106px 5022px;"><g class="note" data-id="d6b08425e-e074-47f1-8a52-4ab93f5f1d86" data-stem.dir="down"><g class="notehead"><use href="#sym_notehead_quarter" height="480px" width="480px" x="4086" y="5238.25"></use></g><g class="stem"><path d="M4086 5238.25 L4086 5660.75" stroke-width="14"></path></g></g><g class="note" data-id="dc5ef6bdf-c486-4302-86b6-44da33b94ebe" data-stem.dir="down"><g class="notehead"><use href="#sym_notehead_quarter" height="480px" width="480px" x="4176" y="5343.875"></use></g><g class="stem"><path d="M4176 5343.875 L4176 5555.125" stroke-width="14"></path></g></g><g class="note" data-id="d256e9260-3aab-49cd-b7b7-de9b03b78295" data-stem.dir="down"><g class="notehead"><use href="#sym_notehead_quarter" height="480px" width="480px" x="4311" y="5555.125"></use></g><g class="stem"><path d="M4311 5555.125 L4311 5660.75" stroke-width="14"></path></g></g><g class="note" data-id="d21359df2-e2ba-4fc7-955c-079bd939baae" data-stem.dir="down"><g class="notehead"><use href="#sym_notehead_quarter" height="480px" width="480px" x="4626" y="5238.25"></use></g><g class="stem"><path d="M4626 5238.25 L4626 5555.125" stroke-width="14"></path></g></g><g class="note" data-id="db70d1f6d-ebdf-4196-a01e-940734c67c18" data-stem.dir="down"><g class="notehead"><use href="#sym_notehead_quarter" height="480px" width="480px" x="5616" y="5238.25"></use></g><g class="stem"><path d="M5616 5238.25 L5616 5449.5" stroke-width="14"></path></g></g><g class="note" data-id="db635ec88-e3a4-48de-9a51-13fcbf0ea68e" data-stem.dir="down"><g class="notehead"><use href="#sym_notehead_quarter" height="480px" width="480px" x="5823" y="5449.5"></use></g><g class="stem"><path d="M5823 5449.5 L5823 5660.75" stroke-width="14"></path></g></g><g class="note" data-id="d26b3a996-60fd-4c54-a49f-9b5b5b13897f" data-stem.dir="down"><g class="notehead"><use href="#sym_notehead_quarter" height="480px" width="480px" x="6156" y="5660.75"></use></g><g class="stem"><path d="M6156 5660.75 L6156 5872" stroke-width="14"></path></g></g><g class="note" data-id="d366e13a1-8e07-426a-9fbc-4572474b74ff" data-stem.dir="down"><g class="notehead"><use href="#sym_notehead_quarter" height="480px" width="480px" x="6426" y="5238.25"></use></g><g class="stem"><path d="M6426 5238.25 L6426 5555.125" stroke-width="14"></path></g></g><g class="note" data-id="ddad8fcc6-df04-4586-9a0c-134799ee3b97" data-stem.dir="down"><g class="notehead"><use href="#sym_notehead_quarter" height="480px" width="480px" x="8046" y="5238.25"></use></g><g class="stem"><path d="M8046 5238.25 L8046 6083.25" stroke-width="14"></path></g></g><g class="note" data-id="db70d3a0b-744b-48de-bfa9-1a4bff25124b" data-stem.dir="down"><g class="notehead"><use href="#sym_notehead_quarter" height="480px" width="480px" x="8325" y="5555.125"></use></g><g class="stem"><path d="M8325 5555.125 L8325 5872" stroke-width="14"></path></g></g><g class="note" data-id="d68e358dc-e3a3-4a49-8ff8-8bfee9d5669d" data-stem.dir="down"><g class="notehead"><use href="#sym_notehead_quarter" height="480px" width="480px" x="8559" y="5766.375"></use></g><g class="stem"><path d="M8559 5766.375 L8559 5977.625" stroke-width="14"></path></g></g><g class="note" data-id="de8487c7e-0e6b-4390-88fa-a1ed547d441c" data-stem.dir="down"><g class="notehead"><use href="#sym_notehead_quarter" height="480px" width="480px" x="9036" y="5238.25"></use></g><g class="stem"><path d="M9036 5238.25 L9036 5766.375" stroke-width="14"></path></g></g><g class="note" data-id="db7985701-24b1-4758-8ee1-28f8cff3eb64" data-stem.dir="down"><g class="notehead"><use href="#sym_notehead_quarter" height="480px" width="480px" x="10386" y="5238.25"></use></g><g class="stem"><path d="M10386 5238.25 L10386 5872" stroke-width="14"></path></g></g><g class="note" data-id="d2e65fc89-0fda-48ea-8c74-735a7f9feef5" data-stem.dir="down"><g class="notehead"><use href="#sym_notehead_quarter" height="480px" width="480px" x="10521" y="5132.625"></use></g><g class="stem"><path d="M10521 5132.625 L10521 5449.5" stroke-width="14"></path></g></g><g class="note" data-id="d41234b84-21cf-4971-bf21-8797f2af2c56" data-stem.dir="down"><g class="notehead"><use href="#sym_notehead_quarter" height="480px" width="480px" x="10656" y="5238.25"></use></g><g class="stem"><path d="M10656 5238.25 L10656 5660.75" stroke-width="14"></path></g></g><g class="note" data-id="dcedc7044-5154-4ee8-bdfb-811dcd815453" data-stem.dir="down"><g class="notehead"><use href="#sym_notehead_quarter" height="480px" width="480px" x="10746" y="5343.875"></use></g><g class="stem"><path d="M10746 5343.875 L10746 5766.375" stroke-width="14"></path></g></g><g class="note" data-id="d7bb77a4d-3fbe-49a3-9e2d-442583cab297" data-stem.dir="down"><g class="notehead"><use href="#sym_notehead_quarter" height="480px" width="480px" x="11034" y="5449.5"></use></g><g class="stem"><path d="M11034 5449.5 L11034 5766.375" stroke-width="14"></path></g></g><g class="note" data-id="d4c07400c-d16e-4152-949d-d8da5af6e907" data-stem.dir="down"><g class="notehead"><use href="#sym_notehead_quarter" height="480px" width="480px" x="11196" y="5238.25"></use></g><g class="stem"><path d="M11196 5238.25 L11196 5555.125" stroke-width="14"></path></g></g><g class="note" data-id="dcc4956c1-a231-4d5f-9ab9-c4735ad8e8a1" data-stem.dir="down"><g class="notehead"><use href="#sym_notehead_quarter" height="480px" width="480px" x="11286" y="5449.5"></use></g><g class="stem"><path d="M11286 5449.5 L11286 5766.375" stroke-width="14"></path></g></g><g class="note" data-id="d222435ea-cf71-4ee4-b9b4-095fd7b7d52c" data-stem.dir="down"><g class="notehead"><use href="#sym_notehead_quarter" height="480px" width="480px" x="11376" y="5238.25"></use></g><g class="stem"><path d="M11376 5238.25 L11376 5660.75" stroke-width="14"></path></g></g><g class="note" data-id="dbe30a5c1-d14f-40b8-85c8-d149b1f87cf1" data-stem.dir="down"><g class="notehead"><use href="#sym_notehead_quarter" height="480px" width="480px" x="11511" y="5660.75"></use></g><g class="stem"><path d="M11511 5660.75 L11511 6083.25" stroke-width="14"></path></g></g><g class="note" data-id="d39ab7b65-e903-49f9-872f-154276252f1a" data-stem.dir="down"><g class="notehead"><use href="#sym_notehead_quarter" height="480px" width="480px" x="11736" y="5555.125"></use></g><g class="stem"><path d="M11736 5555.125 L11736 5872" stroke-width="14"></path></g></g><g class="note" data-id="df7ac36c8-7679-40f2-abe6-d01cc8199030" data-stem.dir="down"><g class="notehead"><use href="#sym_notehead_quarter" height="480px" width="480px" x="11916" y="5660.75"></use></g><g class="stem"><path d="M11916 5660.75 L11916 5977.625" stroke-width="14"></path></g></g><g class="note" data-id="d9f309465-7018-49f5-81f4-8a5f3e8e127a" data-stem.dir="down"><g class="notehead"><use href="#sym_notehead_quarter" height="480px" width="480px" x="12006" y="5766.375"></use></g><g class="stem"><path d="M12006 5766.375 L12006 5977.625" stroke-width="14"></path></g></g><g class="note" data-id="defb44509-5a4e-4b6a-b6ef-327d360b313e" data-stem.dir="down"><g class="notehead"><use href="#sym_notehead_quarter" height="480px" width="480px" x="12366" y="5872"></use></g><g class="stem"><path d="M12366 5872 L12366 6188.875" stroke-width="14"></path></g></g><g class="note" data-id="db19df11d-988e-491d-945e-545be0ed5e7f" data-stem.dir="down"><g class="notehead"><use href="#sym_notehead_quarter" height="480px" width="480px" x="12546" y="5766.375"></use></g><g class="stem"><path d="M12546 5766.375 L12546 6083.25" stroke-width="14"></path></g></g><g class="note" data-id="d3a0df86c-4b58-484b-aba9-61c6affc418e" data-stem.dir="down"><g class="notehead"><use href="#sym_notehead_quarter" height="480px" width="480px" x="12771" y="5872"></use></g><g class="stem"><path d="M12771 5872 L12771 6188.875" stroke-width="14"></path></g></g><g class="note" data-id="d24cf6af8-b930-4ae4-8401-4fb995753035" data-stem.dir="down"><g class="notehead"><use href="#sym_notehead_quarter" height="480px" width="480px" x="12906" y="5977.625"></use></g><g class="ledgerLines below"></g><g class="stem"><path d="M12906 5977.625 L12906 6294.5" stroke-width="14"></path></g></g><g class="accid" data-id="d88a60501-180e-4198-b54f-f8e663989d08"><use href="#sym_accid_n" height="480px" width="480px" x="10926" y="5555.125"></use></g></g><g class="staff" data-n="2" data-rastrum="rf620ad7c-c0c9-4a15-b395-34774d017e01" style="transform: rotate(0.4deg); transform-origin: 2106px 6552px;"><g class="note" data-id="dee6f0311-491d-4bf5-a715-632cc2402d7e" data-stem.dir="down"><g class="notehead"><use href="#sym_notehead_quarter" height="480px" width="480px" x="4266" y="6772.75"></use></g><g class="stem"><path d="M4266 6772.75 L4266 6880.625" stroke-width="14"></path></g></g><g class="note" data-id="d2ecd8177-5e6d-4792-87ee-6118bb0ec03d" data-stem.dir="down"><g class="notehead"><use href="#sym_notehead_quarter" height="480px" width="480px" x="4581" y="6772.75"></use></g><g class="stem"><path d="M4581 6772.75 L4581 6880.625" stroke-width="14"></path></g></g><g class="note" data-id="dfa97cb7d-3cea-4618-978e-217f3c320389" data-stem.dir="down"><g class="notehead"><use href="#sym_notehead_quarter" height="480px" width="480px" x="4806" y="6557"></use></g><g class="stem"><path d="M4806 6557 L4806 6664.875" stroke-width="14"></path></g></g><g class="note" data-id="dfd8fc7f1-c7ef-4e63-8fa8-9a5144961e98" data-stem.dir="down"><g class="notehead"><use href="#sym_notehead_quarter" height="480px" width="480px" x="4986" y="6664.875"></use></g><g class="stem"><path d="M4986 6664.875 L4986 6988.5" stroke-width="14"></path></g></g><g class="note" data-id="deb71d93f-1a42-49f3-b053-080564bc3a00" data-stem.dir="down"><g class="notehead"><use href="#sym_notehead_quarter" height="480px" width="480px" x="5166" y="6772.75"></use></g><g class="stem"><path d="M5166 6772.75 L5166 7096.375" stroke-width="14"></path></g></g><g class="note" data-id="da4588db4-6121-408d-ad2f-a54117170b1d" data-stem.dir="down"><g class="notehead"><use href="#sym_notehead_quarter" height="480px" width="480px" x="5976" y="6664.875"></use></g><g class="stem"><path d="M5976 6664.875 L5976 7096.375" stroke-width="14"></path></g></g><g class="note" data-id="d9d02612e-024c-4dc2-96b4-b1387c06c5d0" data-stem.dir="down"><g class="notehead"><use href="#sym_notehead_quarter" height="480px" width="480px" x="6516" y="6664.875"></use></g><g class="stem"><path d="M6516 6664.875 L6516 6988.5" stroke-width="14"></path></g></g><g class="note" data-id="d6069ef9c-2e46-4351-9926-2a0820523fbb" data-stem.dir="down"><g class="notehead"><use href="#sym_notehead_quarter" height="480px" width="480px" x="6741" y="6449.125"></use></g><g class="ledgerLines above"></g><g class="stem"><path d="M6741 6449.125 L6741 6664.875" stroke-width="14"></path></g></g><g class="note" data-id="df8fce7d7-6ba0-42c7-93a7-bb32368981d1" data-stem.dir="down"><g class="notehead"><use href="#sym_notehead_quarter" height="480px" width="480px" x="6966" y="6557"></use></g><g class="stem"><path d="M6966 6557 L6966 6880.625" stroke-width="14"></path></g></g><g class="note" data-id="d16138efb-314f-44f4-9142-8fec289c8582" data-stem.dir="down"><g class="notehead"><use href="#sym_notehead_quarter" height="480px" width="480px" x="7146" y="6664.875"></use></g><g class="stem"><path d="M7146 6664.875 L7146 6988.5" stroke-width="14"></path></g></g><g class="note" data-id="db1205212-bb3b-4b6c-8d77-e9f9a94caa01" data-stem.dir="down"><g class="notehead"><use href="#sym_notehead_quarter" height="480px" width="480px" x="8136" y="6557"></use></g><g class="stem"><path d="M8136 6557 L8136 6988.5" stroke-width="14"></path></g></g><g class="note" data-id="d45833319-36cf-4c97-ae29-a68c3d42d0fc" data-stem.dir="down"><g class="notehead"><use href="#sym_notehead_quarter" height="480px" width="480px" x="8586" y="6557"></use></g><g class="stem"><path d="M8586 6557 L8586 6880.625" stroke-width="14"></path></g></g><g class="note" data-id="d188ff387-3d02-4cf2-98fb-359e604e92f0" data-stem.dir="down"><g class="notehead"><use href="#sym_notehead_quarter" height="480px" width="480px" x="8856" y="6341.25"></use></g><g class="ledgerLines above"><path d="M8817 6341.25 L9045 6341.25" stroke-width="18"></path></g><g class="stem"><path d="M8856 6341.25 L8856 6772.75" stroke-width="14"></path></g></g><g class="note" data-id="dfe10c068-d0ea-40c2-a562-8c02d16f36d5" data-stem.dir="down"><g class="notehead"><use href="#sym_notehead_quarter" height="480px" width="480px" x="9126" y="6449.125"></use></g><g class="ledgerLines above"></g><g class="stem"><path d="M9126 6449.125 L9126 6772.75" stroke-width="14"></path></g></g><g class="note" data-id="d37e9c361-323b-4604-b886-2acc5ac3f003" data-stem.dir="down"><g class="notehead"><use href="#sym_notehead_quarter" height="480px" width="480px" x="9306" y="6557"></use></g><g class="stem"><path d="M9306 6557 L9306 6880.625" stroke-width="14"></path></g></g><g class="accid" data-id="d3143dff7-6144-44d8-b9bb-6d0604e45a60"><use href="#sym_accid_s" height="480px" width="480px" x="3906" y="6772.75"></use></g></g><g class="barLine" data-id="d5fd5167b-9f3c-4181-8a0f-f1ba017289a8"><path d="M5378.4 5000.4 L5382 7380" stroke-width="27"></path></g><g class="barLine" data-id="d65b368c7-5a5f-4b37-b943-6269c074a855"><path d="M7418.7 5175.9 L7228.8 8770.5" stroke-width="27"></path></g><g class="barLine" data-id="dbe8c64e8-4908-4a46-8c25-0ef6210c1e60"><path d="M10113.3 5054.4 L9855 8571.6" stroke-width="27"></path></g><g class="barLine" data-id="d889b5afc-1194-4914-bf59-6a63789bbbbc"><path d="M11545.199999999999 5175.9 L11392.2 7823.7" stroke-width="27"></path></g><g class="barLine" data-id="dbf5df6de-0d31-4244-8e99-cf1bfb57ed86"><path d="M13738.5 5050.8 L13230 8307.9" stroke-width="27"></path></g><g class="barLine" data-id="de51a4850-db2f-4e15-ac70-a450cae89009"><path d="M2545.2 5019.3 L2450.7 7271.1" stroke-width="27"></path></g><g class="beam" data-id="b4c43d95d-bf46-412f-b16a-2c50d22f3387" style="transform: rotate(0.4deg); transform-origin: 2106px 5022px;"><polygon points="4228.2,5885.1 4707.9,5603.4 4707.9,5693.4 4228.2,5975.1" stroke-opacity="1" fill-opacity="1"></polygon></g><g class="beam" data-id="bf5b21666-117f-4518-a5d5-640bcd8709fe" style="transform: rotate(0.4deg); transform-origin: 2106px 6552px;"><polygon points="4797,7434 5094,7011 5094,7101 4797,7524" stroke-opacity="1" fill-opacity="1"></polygon></g><g class="beam" data-id="b1b542cac-1256-4b51-9dcb-227c04349dbf" style="transform: rotate(0.4deg); transform-origin: 2106px 6552px;"><polygon points="4959,7551 5283,7164 5283,7254 4959,7641" stroke-opacity="1" fill-opacity="1"></polygon></g><g class="beam" data-id="b5cd821f4-3ee9-4f79-812a-fc03405ae543" style="transform: rotate(0.4deg); transform-origin: 2106px 5022px;"><polygon points="5967,6075 6809.4,5489.1 6809.4,5579.1 5967,6165" stroke-opacity="1" fill-opacity="1"></polygon></g><g class="beam" data-id="b16b8f163-db81-4364-80bb-fb7a16b0f009" style="transform: rotate(0.4deg); transform-origin: 2106px 6552px;"><polygon points="6552,7353 6893.099999999999,7027.2 6893.099999999999,7117.2 6552,7443" stroke-opacity="1" fill-opacity="1"></polygon></g><g class="beam" data-id="bc3d2ac74-a961-4c04-8275-61cfdee2fc00" style="transform: rotate(0.4deg); transform-origin: 2106px 6552px;"><polygon points="6669,7641 7326,6984 7326,7074 6669,7731" stroke-opacity="1" fill-opacity="1"></polygon></g><g class="beam" data-id="be20298cc-2d13-4dee-8d26-44e911d72529" style="transform: rotate(0.4deg); transform-origin: 2106px 5022px;"><polygon points="7874.999999999999,6684.3 9025.2,5733 9025.2,5823 7874.999999999999,6774.3" stroke-opacity="1" fill-opacity="1"></polygon></g><g class="beam" data-id="bef5f64d4-c67e-4d64-a452-ec7dc2c608dc" style="transform: rotate(0.4deg); transform-origin: 2106px 6552px;"><polygon points="8478,7443 9283.5,6844.5 9283.5,6934.5 8478,7533" stroke-opacity="1" fill-opacity="1"></polygon></g><g class="beam" data-id="bff39709e-310a-49b6-9660-98f4b1372ad5" style="transform: rotate(0.4deg); transform-origin: 2106px 6552px;"><polygon points="8577,7677 9495,6768 9495,6858 8577,7767" stroke-opacity="1" fill-opacity="1"></polygon></g><g class="beam" data-id="bcaa40d2f-76e2-4e0a-89a7-b1c348122875" style="transform: rotate(0.4deg); transform-origin: 2106px 5022px;"><polygon points="10532.699999999999,5740.2 10791,5527.8 10791,5617.8 10532.699999999999,5830.2" stroke-opacity="1" fill-opacity="1"></polygon></g><g class="beam" data-id="b0ea6c57b-3c7a-403c-b731-e85401d94f04" style="transform: rotate(0.4deg); transform-origin: 2106px 5022px;"><polygon points="10521,6174 10836,5715 10836,5805 10521,6264" stroke-opacity="1" fill-opacity="1"></polygon></g><g class="beam" data-id="bdc94cd0e-e8f0-4bd9-9d21-f8897c96b51c" style="transform: rotate(0.4deg); transform-origin: 2106px 5022px;"><polygon points="11156.4,5908.5 11446.2,5740.2 11446.2,5830.2 11156.4,5998.5" stroke-opacity="1" fill-opacity="1"></polygon></g><g class="beam" data-id="b5b1f5be4-96ec-4c6e-b022-2b498d34004d" style="transform: rotate(0.4deg); transform-origin: 2106px 5022px;"><polygon points="11217.6,6006.6 11468.7,5847.3 11468.7,5937.3 11217.6,6096.6" stroke-opacity="1" fill-opacity="1"></polygon></g><g class="beam" data-id="b32061aab-ed01-4955-a3d4-a915307a6e49" style="transform: rotate(0.4deg); transform-origin: 2106px 5022px;"><polygon points="11712.6,5931 12222.9,5854.5 12222.9,5944.5 11712.6,6021" stroke-opacity="1" fill-opacity="1"></polygon></g><g class="beam" data-id="b70a2dcc3-ab2e-4885-b6cf-9476f79d02b5" style="transform: rotate(0.4deg); transform-origin: 2106px 5022px;"><polygon points="11765.7,6098.4 12285,5976 12285,6066 11765.7,6188.4" stroke-opacity="1" fill-opacity="1"></polygon></g><g class="beam" data-id="bbb894937-eb47-4b6e-b44f-432c3c207716" style="transform: rotate(0.4deg); transform-origin: 2106px 5022px;"><polygon points="12378.6,6079.5 13025.7,6035.4 13025.7,6125.4 12378.6,6169.5" stroke-opacity="1" fill-opacity="1"></polygon></g><g class="beam" data-id="bab73c848-3031-448b-8f72-9545618a42b9" style="transform: rotate(0.4deg); transform-origin: 2106px 5022px;"><polygon points="12460.5,6200.1 13006.800000000001,6118.2 13006.800000000001,6208.2 12460.5,6290.1" stroke-opacity="1" fill-opacity="1"></polygon></g><g class="curve" data-id="db45bdcd8-6540-4d43-b6c2-7e953a010994" data-class="curve"><path d="M4355.10,6620.40 C4395.60,6300.00 4491.00,6268.50 4539.60,6612.30 C4433.79,6294.88 4454.37,6322.70 4355.10,6620.40" stroke-width="9" stroke-linecap="round" stroke-linejoin="round"></path></g><g class="curve" data-id="d815486ba-b7bf-4be7-906a-e343db3f2512" data-class="curve"><path d="M5234.40,5173.20 C5264.10,4901.40 5526.00,4797.00 5642.10,5045.40 C5503.57,4855.87 5313.89,4940.00 5234.40,5173.20" stroke-width="9" stroke-linecap="round" stroke-linejoin="round"></path></g><g class="curve" data-id="d0b348492-5bf2-4bea-8ac3-22e90f14da30" data-class="curve"><path d="M6273.90,6763.50 C6369.30,6396.30 6446.70,6291.00 6489.00,6579.90 C6393.93,6325.41 6428.47,6417.94 6273.90,6763.50" stroke-width="9" stroke-linecap="round" stroke-linejoin="round"></path></g><g class="curve" data-id="dbf5bbfcc-47d8-4265-a98c-a96bf011c5e6" data-class="curve"><path d="M8335.80,6548.40 C8399.70,6412.50 8507.70,6356.70 8559.90,6604.20 C8459.36,6397.10 8446.60,6454.56 8335.80,6548.40" stroke-width="9" stroke-linecap="round" stroke-linejoin="round"></path></g><g class="metaMark navigation" data-id="x3ec3cc10-f89a-4f86-b3ed-ad1c266ef2a6" data-class="metaMark navigation"><text x="11826" y="8892" text-anchor="start" font-size="0px"><tspan id="x3ec3cc10-f89a-4f86-b3ed-ad1c266ef2a6_tspan" class="text"><tspan font-size="555px" font-weight="bold">=de</tspan></tspan></text></g></g><g class="deletions"><g data-id="x0ebe15c5-d2c6-442c-88e0-be89d3560677" data-class="del" class="del"><path data-id="x0ebe15c5-d2c6-442c-88e0-be89d3560677" d="M3996.0,2268.0 L5130.0,2268.0 L5130.0,3141.0 L3996.0,3141.0 Z" class="deletionBack"></path><path d="M3996.0,2268.0 L5130.0,3141.0" stroke-width="9" class="deletionLine"></path><path d="M5130.0,2268.0 L3996.0,3141.0" stroke-width="9" class="deletionLine"></path></g><g data-id="xe6f78ec3-992a-43a6-82ce-80380f18d8d7" data-class="del" class="del"><path data-id="xe6f78ec3-992a-43a6-82ce-80380f18d8d7" d="M5490.0,2115.0 L7038.0,2115.0 L7038.0,3474.0 L5490.0,3474.0 Z" class="deletionBack"></path><path d="M5490.0,2115.0 L7038.0,3474.0" stroke-width="9" class="deletionLine"></path><path d="M7038.0,2115.0 L5490.0,3474.0" stroke-width="9" class="deletionLine"></path></g><g data-id="xfd472567-b639-4629-b41d-d9c3e09b8eaf" data-class="del" class="del"><path data-id="xfd472567-b639-4629-b41d-d9c3e09b8eaf" d="M21420.0,2043.0 L22086.0,2052.0 L21897.0,2835.0 L21420.0,2808.0 Z" class="deletionBack"></path><path d="M21420.0,2043.0 L21897.0,2835.0" stroke-width="9" class="deletionLine"></path><path d="M22086.0,2052.0 L21420.0,2808.0" stroke-width="9" class="deletionLine"></path></g><g data-id="x6c476f05-8d87-4429-a0c7-a6502fb030e2" data-class="del" class="del"><path data-id="x6c476f05-8d87-4429-a0c7-a6502fb030e2" d="M11709.0,5058.0 L12825.0,5058.0 L12825.0,5787.0 L11709.0,5787.0 Z" class="deletionBack"></path><path d="M11709.0,5058.0 L12825.0,5787.0" stroke-width="9" class="deletionLine"></path><path d="M12825.0,5058.0 L11709.0,5787.0" stroke-width="9" class="deletionLine"></path></g></g></g></svg>