<svg viewBox="2673 -836.1 10161.9 5318.1" xmlns="http://www.w3.org/2000/svg" version="1.1" overflow="visible"><desc>Facsimile engraved by Thulemeier 1.0.0 on 2026-04-07</desc><defs><style type="text/css">
    /* .staff * {
      fill: #000;
      stroke: #000;
    }

    .deletionBack {
      fill: #00000033;
    } */
  </style><symbol id="sym_notehead_quarter" viewBox="0 0 1000 1000" overflow="inherit"><path transform="scale(1,-1)" d="M0 -39c0 68 73 172 200 172c66 0 114 -37 114 -95c0 -84 -106 -171 -218 -171c-64 0 -96 30 -96 94z"></path></symbol><symbol id="sym_notehead_half" viewBox="0 0 1000 1000" overflow="inherit"><path transform="scale(1,-1)" d="M278 64c0 22 -17 39 -43 39c-12 0 -26 -3 -41 -10c-85 -43 -165 -94 -165 -156c5 -25 15 -32 49 -32c67 11 200 95 200 159zM0 -36c0 68 73 174 200 174c66 0 114 -39 114 -97c0 -84 -106 -173 -218 -173c-64 0 -96 32 -96 96z"></path></symbol></defs><g class="rastrums"><g class="rastrum" data-id="rc8aa111c-2981-452a-8254-1e5ed28d1a31" style="transform: rotate(-0.2deg); transform-origin: 1890px 1278px;"><g class="rastrum bounding-box" data-id="bbox-rc8aa111c-2981-452a-8254-1e5ed28d1a31"><rect x="1890" y="1278" width="22311" height="576" fill="#ff000033"></rect></g><path d="M1890 1283 L24201 1283" stroke-width="10" stroke="black"></path><path d="M1890 1424.5 L24201 1424.5" stroke-width="10" stroke="black"></path><path d="M1890 1566 L24201 1566" stroke-width="10" stroke="black"></path><path d="M1890 1707.5 L24201 1707.5" stroke-width="10" stroke="black"></path><path d="M1890 1849 L24201 1849" stroke-width="10" stroke="black"></path></g></g><g class="draft" data-label="1" data-id="dde33da1e-6995-416e-85fe-0fc6afad7020"><g class="system" data-id="sb7428a55-ab36-4f81-b2fd-76986fdb2f3e"><g class="staff" data-n="1" data-rastrum="rc8aa111c-2981-452a-8254-1e5ed28d1a31" style="transform: rotate(-0.2deg); transform-origin: 1890px 1278px;"><g class="note" data-id="d75070cc9-6fdc-4658-bd5c-3f36210e9352" data-stem.dir="down"><g class="notehead"><use href="#sym_notehead_quarter" height="480px" width="480px" x="4473" y="1353.75"></use></g><g class="stem"><path d="M4473 1353.75 L4473 1707.5" stroke-width="14"></path></g></g><g class="note" data-id="dadb9a06e-0f9f-445a-bab1-2d1b01c8e910" data-stem.dir="down"><g class="notehead"><use href="#sym_notehead_quarter" height="480px" width="480px" x="4950" y="1566"></use></g><g class="stem"><path d="M4950 1566 L4950 1707.5" stroke-width="14"></path></g></g><g class="note" data-id="d6c35595f-e788-4370-9400-b6cbddef766b" data-stem.dir="down"><g class="notehead"><use href="#sym_notehead_quarter" height="480px" width="480px" x="5094" y="1566"></use></g><g class="stem"><path d="M5094 1566 L5094 1636.75" stroke-width="14"></path></g></g><g class="note" data-id="d86144c18-ad68-43aa-979e-9f0b44c35312" data-stem.dir="down"><g class="notehead"><use href="#sym_notehead_quarter" height="480px" width="480px" x="5211" y="1566"></use></g><g class="stem"><path d="M5211 1566 L5211 1636.75" stroke-width="14"></path></g></g><g class="note" data-id="d4c730f14-3377-499b-a4d9-04b651bb0d15" data-stem.dir="down"><g class="notehead"><use href="#sym_notehead_quarter" height="480px" width="480px" x="5337" y="1566"></use></g><g class="stem"><path d="M5337 1566 L5337 1707.5" stroke-width="14"></path></g></g><g class="note" data-id="d1175c22a-4930-4bfd-ae9f-a0803c5ff09c" data-stem.dir="up"><g class="notehead"><use href="#sym_notehead_quarter" height="480px" width="480px" x="6300" y="1566"></use></g><g class="stem"><path d="M6450 1353.75 L6450 1566" stroke-width="14"></path></g></g><g class="note" data-id="d9cb86157-678c-4908-9993-aea489d0bc76" data-stem.dir="up"><g class="notehead"><use href="#sym_notehead_quarter" height="480px" width="480px" x="6525" y="1566"></use></g><g class="stem"><path d="M6675 1353.75 L6675 1566" stroke-width="14"></path></g></g><g class="note" data-id="d8596bf7b-292d-42e2-a489-54479731f070" data-stem.dir="down"><g class="notehead"><use href="#sym_notehead_half" height="480px" width="480px" x="6525" y="1707.5"></use></g><g class="stem"><path d="M6525 1707.5 L6525 2202.75" stroke-width="14"></path></g></g><g class="note" data-id="d9f9eb048-856c-4968-acb0-56a383b660bc" data-stem.dir="up"><g class="notehead"><use href="#sym_notehead_quarter" height="480px" width="480px" x="6723" y="1566"></use></g><g class="stem"><path d="M6873 1283 L6873 1566" stroke-width="14"></path></g></g><g class="note" data-id="dc2ffc9b4-1ac7-41d5-b461-7baa348eee04" data-stem.dir="up"><g class="notehead"><use href="#sym_notehead_quarter" height="480px" width="480px" x="6867" y="1566"></use></g><g class="stem"><path d="M7017 1283 L7017 1566" stroke-width="14"></path></g></g><g class="note" data-id="d1aaf79fb-f2c0-4737-87c5-9ff06ffa3970" data-stem.dir="down"><g class="notehead"><use href="#sym_notehead_half" height="480px" width="480px" x="6840" y="1778.25"></use></g><g class="stem"><path d="M6840 1778.25 L6840 2202.75" stroke-width="14"></path></g></g></g><g class="barLine" data-id="d5a5f9d5c-2066-4689-a0b6-bc444733139d"><path d="M4779 1153.8 L4650.3 2199.6" stroke-width="27"></path></g><g class="barLine" data-id="d835eeeb2-7f4f-4337-8fa2-4cb217e96e52"><path d="M5716.8 1210.5 L5562 2271.6" stroke-width="27"></path></g><g class="barLine" data-id="d69e3bbca-8824-44ad-8201-5d92be8f5106"><path d="M7377.3 963.9 L7210.8 2682" stroke-width="27"></path></g><g class="barLine" data-id="d0b089534-9eb1-4976-ba98-32d2fa3f4d45"><path d="M9502.2 1106.1 L9348.3 2132.1" stroke-width="27"></path></g><g class="barLine" data-id="dbad9b48e-621c-4ff8-8180-a76fdb73aa10"><path d="M11034.9 1044.9 L10825.2 2292.3" stroke-width="27"></path></g></g><g class="deletions"></g></g></svg>