<svg viewBox="6009 11439 17949 5643" xmlns="http://www.w3.org/2000/svg" version="1.1" overflow="visible"><desc>Facsimile engraved by Thulemeier 1.0.0 on 2026-04-22</desc><defs><style type="text/css">
    /* .staff * {
      fill: #000;
      stroke: #000;
    }

    .deletionBack {
      fill: #00000033;
    } */
  </style><symbol id="sym_notehead_quarter" viewBox="0 0 1000 1000" overflow="inherit"><path transform="scale(1,-1)" d="M0 -39c0 68 73 172 200 172c66 0 114 -37 114 -95c0 -84 -106 -171 -218 -171c-64 0 -96 30 -96 94z"></path></symbol><symbol id="sym_accid_s" viewBox="0 0 1000 1000" overflow="inherit"><path transform="scale(1,-1)" d="M136 186v169h17v-164l44 14v-91l-44 -14v-165l44 12v-91l-44 -13v-155h-17v150l-76 -22v-155h-17v149l-43 -13v90l43 14v167l-43 -14v92l43 13v169h17v-163zM60 73v-167l76 22v168z"></path></symbol></defs><g class="rastrums"><g class="rastrum" data-id="r092849d1-8ef7-41e7-b071-84e8df2986bd" style="transform: rotate(-0.05deg); transform-origin: 2178px 13527px;"><g class="rastrum bounding-box" data-id="bbox-r092849d1-8ef7-41e7-b071-84e8df2986bd"><rect x="2178" y="13527" width="22473" height="720" fill="#ff000033"></rect></g><path d="M2178 13532 L24651 13532" stroke-width="10" stroke="black"></path><path d="M2178 13709.5 L24651 13709.5" stroke-width="10" stroke="black"></path><path d="M2178 13887 L24651 13887" stroke-width="10" stroke="black"></path><path d="M2178 14064.5 L24651 14064.5" stroke-width="10" stroke="black"></path><path d="M2178 14242 L24651 14242" stroke-width="10" stroke="black"></path></g></g><g class="draft" data-label="2" data-id="d68291952-c4c5-40d1-b2d9-15f4a866940d"><g class="system" data-id="s5f2da510-299e-40f8-a415-dad95e3310e3"><g class="staff" data-n="1" data-rastrum="r092849d1-8ef7-41e7-b071-84e8df2986bd" style="transform: rotate(-0.05deg); transform-origin: 2178px 13527px;"><g class="note" data-id="d33cbd727-ec1f-4714-91dc-a39fbc223118" data-stem.dir="down"><g class="notehead"><use href="#sym_notehead_quarter" height="480px" width="480px" x="7848" y="13354.5"></use></g><g class="ledgerLines above"><path d="M7809 13354.5 L8037 13354.5" stroke-width="18"></path></g><g class="stem"><path d="M7848 13354.5 L7848 13887" stroke-width="14"></path></g></g><g class="note" data-id="d8ecc16b3-641e-4b9b-b649-094da5e5ec6c" data-stem.dir="down"><g class="notehead"><use href="#sym_notehead_quarter" height="480px" width="480px" x="8658" y="13443.25"></use></g><g class="ledgerLines above"></g><g class="stem"><path d="M8658 13443.25 L8658 14242" stroke-width="14"></path></g></g><g class="note" data-id="d0f3c7c9c-a598-4d8a-af28-7e91d0e56b20" data-stem.dir="down"><g class="notehead"><use href="#sym_notehead_quarter" height="480px" width="480px" x="8928" y="13532"></use></g><g class="stem"><path d="M8928 13532 L8928 13887" stroke-width="14"></path></g></g><g class="note" data-id="db98c0af0-9ddd-4669-91d4-f3d7b0b90d8b" data-stem.dir="down"><g class="notehead"><use href="#sym_notehead_quarter" height="480px" width="480px" x="10008" y="13620.75"></use></g><g class="stem"><path d="M10008 13620.75 L10008 13887" stroke-width="14"></path></g></g><g class="note" data-id="d75c5cb6f-68e7-4b7e-a630-cde607948adb" data-stem.dir="down"><g class="notehead"><use href="#sym_notehead_quarter" height="480px" width="480px" x="10458" y="13709.5"></use></g><g class="stem"><path d="M10458 13709.5 L10458 13798.25" stroke-width="14"></path></g></g><g class="note" data-id="d7c50fb21-efd2-469f-b46b-71acbe9ae231" data-stem.dir="down"><g class="notehead"><use href="#sym_notehead_quarter" height="480px" width="480px" x="10818" y="13798.25"></use></g><g class="stem"><path d="M10818 13798.25 L10818 13975.75" stroke-width="14"></path></g></g><g class="note" data-id="d828af3bc-c37b-4614-b970-32c3d0b65bfa" data-stem.dir="down"><g class="notehead"><use href="#sym_notehead_quarter" height="480px" width="480px" x="11358" y="13887"></use></g><g class="stem"><path d="M11358 13887 L11358 14064.5" stroke-width="14"></path></g></g><g class="note" data-id="d0d85d0c1-fd97-4d1f-ad3d-c55d58b016a8" data-stem.dir="down"><g class="notehead"><use href="#sym_notehead_quarter" height="480px" width="480px" x="11718" y="13709.5"></use></g><g class="stem"><path d="M11718 13709.5 L11718 13887" stroke-width="14"></path></g></g><g class="note" data-id="df523e5a1-1763-44d7-b4e1-6b944743e9fc" data-stem.dir="down"><g class="notehead"><use href="#sym_notehead_quarter" height="480px" width="480px" x="12168" y="13887"></use></g><g class="stem"><path d="M12168 13887 L12168 14064.5" stroke-width="14"></path></g></g><g class="note" data-id="dbf8672a6-c0a3-4c41-84a2-ce0f11eabeee" data-stem.dir="down"><g class="notehead"><use href="#sym_notehead_quarter" height="480px" width="480px" x="12618" y="13975.75"></use></g><g class="stem"><path d="M12618 13975.75 L12618 14153.25" stroke-width="14"></path></g></g><g class="note" data-id="d4b04d6cb-708c-4632-a1d6-63ffffbccc68" data-stem.dir="down"><g class="notehead"><use href="#sym_notehead_quarter" height="480px" width="480px" x="13059" y="14064.5"></use></g><g class="stem"><path d="M13059 14064.5 L13059 14419.5" stroke-width="14"></path></g></g><g class="note" data-id="d1612d172-0cbd-428f-ace0-4a8b9c8911a9" data-stem.dir="down"><g class="notehead"><use href="#sym_notehead_quarter" height="480px" width="480px" x="16128" y="13265.75"></use></g><g class="ledgerLines above"><path d="M16089 13354.5 L16317 13354.5" stroke-width="18"></path></g><g class="stem"><path d="M16128 13265.75 L16128 13709.5" stroke-width="14"></path></g></g><g class="note" data-id="d8b812779-8453-4ff2-b537-5db19bf3707d" data-stem.dir="down"><g class="notehead"><use href="#sym_notehead_quarter" height="480px" width="480px" x="16929" y="13354.5"></use></g><g class="ledgerLines above"><path d="M16890 13354.5 L17118 13354.5" stroke-width="18"></path></g><g class="stem"><path d="M16929 13354.5 L16929 13798.25" stroke-width="14"></path></g></g><g class="note" data-id="da8cf3212-2ed3-4c50-af90-6521a3c08f8f" data-stem.dir="down"><g class="notehead"><use href="#sym_notehead_quarter" height="480px" width="480px" x="17469" y="13443.25"></use></g><g class="ledgerLines above"></g><g class="stem"><path d="M17469 13443.25 L17469 13798.25" stroke-width="14"></path></g></g><g class="note" data-id="d16250dbf-0cfb-4d5b-9ed2-5e9a75591b4a" data-stem.dir="down"><g class="notehead"><use href="#sym_notehead_quarter" height="480px" width="480px" x="18918" y="13443.25"></use></g><g class="ledgerLines above"></g><g class="stem"><path d="M18918 13443.25 L18918 13887" stroke-width="14"></path></g></g><g class="note" data-id="d07d417b1-ed00-4f40-a678-18f987a48541" data-stem.dir="down"><g class="notehead"><use href="#sym_notehead_quarter" height="480px" width="480px" x="19278" y="13532"></use></g><g class="stem"><path d="M19278 13532 L19278 13798.25" stroke-width="14"></path></g></g><g class="note" data-id="d673e9535-0497-41dc-853b-7e5f98b16193" data-stem.dir="down"><g class="notehead"><use href="#sym_notehead_quarter" height="480px" width="480px" x="19728" y="13620.75"></use></g><g class="stem"><path d="M19728 13620.75 L19728 13887" stroke-width="14"></path></g></g><g class="note" data-id="d77c51ffa-0fa0-4151-b1d8-c203c4598189" data-stem.dir="down"><g class="notehead"><use href="#sym_notehead_quarter" height="480px" width="480px" x="20124" y="13709.5"></use></g><g class="stem"><path d="M20124 13709.5 L20124 13975.75" stroke-width="14"></path></g></g><g class="note" data-id="d8be7e14c-c23c-4d9c-bf07-67ee0eaba2c5" data-stem.dir="down"><g class="notehead"><use href="#sym_notehead_quarter" height="480px" width="480px" x="20988" y="13709.5"></use></g><g class="stem"><path d="M20988 13709.5 L20988 14330.75" stroke-width="14"></path></g></g><g class="note" data-id="ddaa26c8f-4c91-43ea-9074-8005b8f258df" data-stem.dir="down"><g class="notehead"><use href="#sym_notehead_quarter" height="480px" width="480px" x="21798" y="13798.25"></use></g><g class="stem"><path d="M21798 13798.25 L21798 14153.25" stroke-width="14"></path></g></g><g class="note" data-id="d8dff1b81-6434-4436-8382-73bcb12e1e11" data-stem.dir="down"><g class="notehead"><use href="#sym_notehead_quarter" height="480px" width="480px" x="22158" y="13887"></use></g><g class="stem"><path d="M22158 13887 L22158 14064.5" stroke-width="14"></path></g></g><g class="note" data-id="da0dc88c1-5d41-48ad-b63a-e645a016e3ba" data-stem.dir="down"><g class="notehead"><use href="#sym_notehead_quarter" height="480px" width="480px" x="22068" y="13709.5"></use></g><g class="stem"><path d="M22068 13709.5 L22068 14064.5" stroke-width="14"></path></g></g><g class="accid" data-id="d1a183b81-eca5-4133-a1e2-1011e6f39dc9"><use href="#sym_accid_s" height="480px" width="480px" x="21438" y="13798.25"></use></g><g class="dot augmentation" data-id="dfee110b4-d37d-4f73-9fe0-199c85591edf" data-class="dot augmentation"><ellipse cx="8179" cy="13443.25" rx="29" ry="29" fill-opacity="1" stroke-opacity="1"></ellipse></g><g class="dot augmentation" data-id="d3efb2e89-25f4-4251-9e20-aa712595863d" data-class="dot augmentation"><ellipse cx="16594" cy="13443.25" rx="29" ry="29" fill-opacity="1" stroke-opacity="1"></ellipse></g></g><g class="barLine" data-id="d33c72394-6c1d-4da7-a2b7-c1f4d5adc9a9"><path d="M9621.9 13380.3 L9540 15282" stroke-width="27"></path></g><g class="barLine" data-id="dbe594cd6-1099-4c9f-acbe-0a062aa7a207"><path d="M14580.000000000002 13419 L14463 15003" stroke-width="27"></path></g><g class="barLine" data-id="df5115706-dc74-41bd-b194-23f26c4b7b54"><path d="M18630 13239 L18396 14274" stroke-width="27"></path></g><g class="beam" data-id="bd3478e56-10f7-4160-adb2-929e6e02e8d0" style="transform: rotate(-0.05deg); transform-origin: 2178px 13527px;"><polygon points="8556.3,14136.3 9160.2,13741.2 9160.2,13831.2 8556.3,14226.3" stroke-opacity="1" fill-opacity="1"></polygon></g><g class="beam" data-id="b14ba299f-3229-4c7b-a245-b9f55cc38b18" style="transform: rotate(-0.05deg); transform-origin: 2178px 13527px;"><polygon points="8649,14485.5 9358.2,13857.3 9358.2,13947.3 8649,14575.5" stroke-opacity="1" fill-opacity="1"></polygon></g><g class="beam" data-id="bb2794d28-357a-41bb-be0d-297d046a4b23" style="transform: rotate(-0.05deg); transform-origin: 2178px 13527px;"><polygon points="10508.4,15019.2 12553.2,14450.4 12553.2,14540.4 10508.4,15109.2" stroke-opacity="1" fill-opacity="1"></polygon></g><g class="beam" data-id="b5dcf9aa6-70ae-4911-bde5-5b7a132c8e2e" style="transform: rotate(-0.05deg); transform-origin: 2178px 13527px;"><polygon points="10461.6,14775.3 10775.7,14589.9 10775.7,14679.9 10461.6,14865.3" stroke-opacity="1" fill-opacity="1"></polygon></g><g class="beam" data-id="b184f5298-cc92-46f7-828f-972f5a4d6719" style="transform: rotate(-0.05deg); transform-origin: 2178px 13527px;"><polygon points="10438.2,14613.3 10717.199999999999,14554.8 10717.199999999999,14644.8 10438.2,14703.3" stroke-opacity="1" fill-opacity="1"></polygon></g><g class="beam" data-id="b2d58e990-eaa1-4fe3-9fd9-4e791f933bdb" style="transform: rotate(-0.05deg); transform-origin: 2178px 13527px;"><polygon points="16725.6,14078.7 17793.9,13590 17793.9,13680 16725.6,14168.7" stroke-opacity="1" fill-opacity="1"></polygon></g><g class="beam" data-id="b1c4ee0d6-3c48-471d-b91b-1bbdb5cd0fe4" style="transform: rotate(-0.05deg); transform-origin: 2178px 13527px;"><polygon points="16736.4,14496.3 17689.5,13892.4 17689.5,13982.4 16736.4,14586.3" stroke-opacity="1" fill-opacity="1"></polygon></g><g class="beam" data-id="b095e48a6-ed08-4ea4-8ad3-69205c34f890" style="transform: rotate(-0.05deg); transform-origin: 2178px 13527px;"><polygon points="19014.3,14229 19746.9,13962.6 19746.9,14052.6 19014.3,14319" stroke-opacity="1" fill-opacity="1"></polygon></g><g class="beam" data-id="b019c47d6-c2ec-4099-b331-663d3cb47dab" style="transform: rotate(-0.05deg); transform-origin: 2178px 13527px;"><polygon points="19351.8,14613.3 20350.8,14112.9 20350.8,14202.9 19351.8,14703.3" stroke-opacity="1" fill-opacity="1"></polygon></g><g class="beam" data-id="b317c3fab-1e19-4a5d-8499-6323b8106608" style="transform: rotate(-0.05deg); transform-origin: 2178px 13527px;"><polygon points="21060,14613.3 22105.8,14368.5 22105.8,14458.5 21060,14703.3" stroke-opacity="1" fill-opacity="1"></polygon></g><g class="beam" data-id="d5fed332c-0bc9-4971-8b3e-580651dadc97" style="transform: rotate(-0.05deg); transform-origin: 2178px 13527px;"><polygon points="10577.7,14462.1 13459.5,13962.6 13459.5,14052.6 10577.7,14552.1" stroke-opacity="1" fill-opacity="1"></polygon></g></g><g class="deletions"></g></g></svg>