<svg width="824px" height="638px" version="1.1" xmlns="http://www.w3.org/2000/svg" xmlns:xlink="http://www.w3.org/1999/xlink" overflow="visible" id="hdkanp7">
   <desc>Engraved by Verovio 5.6.0-85e7620</desc>
   <defs>
      <g id="E050-hdkanp7">
         <path transform="scale(1,-1)" d="M441 -245c-23 -4 -48 -6 -76 -6c-59 0 -102 7 -130 20c-88 42 -150 93 -187 154c-26 44 -43 103 -48 176c0 6 -1 13 -1 19c0 54 15 111 45 170c29 57 65 106 110 148s96 85 153 127c-3 16 -8 46 -13 92c-4 43 -5 73 -5 89c0 117 16 172 69 257c34 54 64 82 89 82 c21 0 43 -30 69 -92s39 -115 41 -159v-15c0 -109 -21 -162 -67 -241c-13 -20 -63 -90 -98 -118c-13 -9 -25 -19 -37 -29l31 -181c8 1 18 2 28 2c58 0 102 -12 133 -35c59 -43 92 -104 98 -184c1 -7 1 -15 1 -22c0 -123 -87 -209 -181 -248c8 -57 17 -110 25 -162 c5 -31 6 -58 6 -80c0 -30 -5 -53 -14 -70c-35 -64 -88 -99 -158 -103c-5 0 -11 -1 -16 -1c-37 0 -72 10 -108 27c-50 24 -77 59 -80 105v11c0 29 7 55 20 76c18 28 45 42 79 44h6c49 0 93 -42 97 -87v-9c0 -51 -34 -86 -105 -106c17 -24 51 -36 102 -36c62 0 116 43 140 85 c9 16 13 41 13 74c0 20 -1 42 -5 67c-8 53 -18 106 -26 159zM461 939c-95 0 -135 -175 -135 -286c0 -24 2 -48 5 -71c50 39 92 82 127 128c40 53 60 100 60 140v8c-4 53 -22 81 -55 81h-2zM406 119l54 -326c73 25 110 78 110 161c0 7 0 15 -1 23c-7 95 -57 142 -151 142h-12 zM382 117c-72 -2 -128 -47 -128 -120v-7c2 -46 43 -99 75 -115c-3 -2 -7 -5 -10 -10c-70 33 -116 88 -123 172v11c0 68 44 126 88 159c23 17 49 29 78 36l-29 170c-21 -13 -52 -37 -92 -73c-50 -44 -86 -84 -109 -119c-45 -69 -67 -130 -67 -182v-13c5 -68 35 -127 93 -176 s125 -73 203 -73c25 0 50 3 75 9c-19 111 -36 221 -54 331z"/>
      </g>
      <g id="E260-hdkanp7">
         <path transform="scale(1,-1)" d="M20 110c32 16 54 27 93 27c26 0 35 -3 54 -13c13 -7 24 -20 27 -38l4 -25c0 -28 -16 -57 -45 -89c-23 -25 -39 -44 -65 -68l-88 -79v644h20v-359zM90 106c-32 0 -48 -10 -70 -29v-194c31 31 54 59 71 84c21 32 32 59 32 84c0 9 1 16 1 20c0 14 -3 21 -11 30l-8 3z"/>
      </g>
      <g id="E08B-hdkanp7">
         <path transform="scale(1,-1)" d="M188 200c-42 -22 -63 -69 -63 -141v-119c0 -39 7 -70 19 -94s26 -40 44 -48v402zM0 -0c0 127 80 220 186 246v72h32l-6 -72c33 0 71 0 101 -11c54 -20 102 -65 102 -135c0 -16 -4 -30 -13 -43s-20 -24 -32 -29l-20 -8l-23 -3c-22 2 -41 8 -55 21s-21 31 -26 51 c0 38 45 80 79 80c12 0 19 3 19 10c0 6 -6 12 -15 18c-19 13 -47 24 -79 24c-10 0 -20 -1 -32 -5v-431c15 -3 12 -4 30 -4c57 0 100 51 121 93l17 39c3 13 5 25 5 35h26c-6 -70 -28 -121 -66 -152s-82 -47 -133 -47v-68h-30v72c-57 10 -122 54 -153 109c-7 12 -13 26 -19 42 c-11 29 -16 61 -16 96z"/>
      </g>
      <g id="E0A3-hdkanp7">
         <path transform="scale(1,-1)" d="M278 64c0 22 -17 39 -43 39c-12 0 -26 -3 -41 -10c-85 -43 -165 -94 -165 -156c5 -25 15 -32 49 -32c67 11 200 95 200 159zM0 -36c0 68 73 174 200 174c66 0 114 -39 114 -97c0 -84 -106 -173 -218 -173c-64 0 -96 32 -96 96z"/>
      </g>
      <g id="E0A4-hdkanp7">
         <path transform="scale(1,-1)" d="M0 -39c0 68 73 172 200 172c66 0 114 -37 114 -95c0 -84 -106 -171 -218 -171c-64 0 -96 30 -96 94z"/>
      </g>
      <g id="E062-hdkanp7">
         <path transform="scale(1,-1)" d="M582 -120c0 32 26 58 58 58s58 -26 58 -58s-26 -58 -58 -58s-58 26 -58 58zM582 120c0 32 26 58 58 58s58 -26 58 -58s-26 -58 -58 -58s-58 26 -58 58zM158 96c51 0 73 -14 88 -49l16 -39c0 -17 -2 -30 -7 -40c-3 -11 -10 -21 -19 -31c-17 -18 -49 -43 -84 -43 c-55 0 -77 13 -112 44c-24 21 -35 55 -35 100c0 46 14 81 32 112c30 52 71 79 137 93l36 6l26 2c154 0 235 -68 274 -182c11 -32 18 -68 18 -107c0 -103 -26 -182 -68 -250c-89 -145 -234 -230 -412 -288l-30 -5c-9 0 -14 3 -14 8c3 10 5 11 10 16c35 15 70 30 96 44l78 43 c96 57 162 136 197 258c9 33 17 60 22 100c3 22 5 35 6 39c-7 69 -16 115 -23 140s-4 22 -16 40c-8 12 -19 23 -31 34c-24 21 -62 44 -118 44c-48 0 -84 -8 -113 -28c-28 -19 -42 -44 -42 -73v-16c2 -5 3 -9 4 -11c24 22 52 39 84 39z"/>
      </g>
   </defs>
   <style type="text/css">#hdkanp7 g.page-margin {font-family:Times,serif;}#hdkanp7 g.ending, #hdkanp7 g.fing, #hdkanp7 g.reh, #hdkanp7 g.tempo {font-weight:bold;}#hdkanp7 g.dir, #hdkanp7 g.dynam, #hdkanp7 g.mNum {font-style:italic;}#hdkanp7 g.label {font-weight:normal;}#hdkanp7 path {stroke:currentColor}</style>
   <svg class="definition-scale" color="black" viewBox="-1873 -304 29373 21594">
      <g class="page-margin" transform="translate(1000, 3000)">
         <g data-id="xa3487a8b-42e3-4d1c-9dbc-5838c52bb563" data-class="mdiv" class="mdiv pageMilestone">
            <g data-id="bbox-xa3487a8b-42e3-4d1c-9dbc-5838c52bb563" data-class="mdiv" class="mdiv bounding-box"/>
         </g>
         <g data-id="se8d5e414-5657-4cdf-a1b5-ec11437ee0e9" data-class="score" class="score pageMilestone">
            <g data-id="bbox-se8d5e414-5657-4cdf-a1b5-ec11437ee0e9" data-class="score" class="score bounding-box"/>
         </g>
         <g data-id="edq0st4" data-class="system" class="system">
            <g data-id="bbox-edq0st4" data-class="system" class="system bounding-box">
               <rect x="-1" y="761" height="2547" width="27" fill="transparent"/>
            </g>
            <path d="M13 774 L13 3294" stroke-width="27"/>
            <g data-id="xb8eed2eb-3d73-42db-8a95-a7f2477d3af4" data-class="section" class="section systemMilestone"/>
            <g data-id="bcd3d507b-bdf7-42d8-98e8-abc472fd567c" data-class="annot" class="annot">
               <g data-id="bbox-bcd3d507b-bdf7-42d8-98e8-abc472fd567c" data-class="annot" class="annot bounding-box"/>
               <desc/>
            </g>
            <g data-id="k1frvcol" data-class="systemMilestoneEnd" class="systemMilestoneEnd bcd3d507b-bdf7-42d8-98e8-abc472fd567c"/>
            <g data-id="s6f54382d-a948-4893-a928-bb6b0187e23f" data-class="pb" class="pb"/>
            <g data-id="x6be0e62b-b738-43a7-9784-438394451d76" data-class="measure" class="measure">
               <g data-id="bbox-x6be0e62b-b738-43a7-9784-438394451d76" data-class="measure" class="measure bounding-box"/>
               <g data-id="xa92e4fae-8ac5-4e42-9788-35ee8a8a9cd5" data-class="staff" class="staff">
                  <g data-id="bbox-xa92e4fae-8ac5-4e42-9788-35ee8a8a9cd5" data-class="staff" class="staff bounding-box">
                     <rect x="-7" y="768" height="733" width="4836" fill="transparent"/>
                  </g>
                  <path d="M0 774 L4823 774" stroke-width="13" class="rastrum"><animate id="se7fd0473-c427-4be3-bb39-7f1ccf38c2cb" attributeName="d" values="M0 1039 L6976 1039;M0 1039 L6976 1039;M0 774 L4823 774;M0 774 L4823 774;M0 774 L4823 774;M0 774 L4823 774" repeatCount="indefinite" dur="5s"/></path>
                  <path d="M0 954 L4823 954" stroke-width="13" class="rastrum"><animate id="sffe0fa58-9b4a-424d-a5ae-4789dcca145c" attributeName="d" values="M0 1217 L6976 1217;M0 1217 L6976 1217;M0 954 L4823 954;M0 954 L4823 954;M0 954 L4823 954;M0 954 L4823 954" repeatCount="indefinite" dur="5s"/></path>
                  <path d="M0 1134 L4823 1134" stroke-width="13" class="rastrum"><animate id="s0f43aeae-64d5-47e7-be04-149106a0f39f" attributeName="d" values="M0 1395 L6976 1395;M0 1395 L6976 1395;M0 1134 L4823 1134;M0 1134 L4823 1134;M0 1134 L4823 1134;M0 1134 L4823 1134" repeatCount="indefinite" dur="5s"/></path>
                  <path d="M0 1314 L4823 1314" stroke-width="13" class="rastrum"><animate id="s74605cb4-23ae-438f-adb4-4de3362a9e64" attributeName="d" values="M0 1574 L6976 1574;M0 1574 L6976 1574;M0 1314 L4823 1314;M0 1314 L4823 1314;M0 1314 L4823 1314;M0 1314 L4823 1314" repeatCount="indefinite" dur="5s"/></path>
                  <path d="M0 1494 L4823 1494" stroke-width="13" class="rastrum"><animate id="sb3f6749d-da0d-4d22-a17e-9d003643f416" attributeName="d" values="M0 1752 L6976 1752;M0 1752 L6976 1752;M0 1494 L4823 1494;M0 1494 L4823 1494;M0 1494 L4823 1494;M0 1494 L4823 1494" repeatCount="indefinite" dur="5s"/></path>
                  <g data-id="ce60fc8be-d334-4649-8334-0d0eda0d8b5b" data-class="clef" class="clef supplied" fill="#009900" stroke="#009900">
                     <g data-id="bbox-oq9rlva" data-class="clef" class="clef bounding-box">
                        <rect x="117" y="534" height="1251" width="465" fill="transparent"/>
                     </g>
                     <use href="#E050-hdkanp7" transform="translate(117, 1314) scale(0.72, 0.72)"/>
                  <animate id="s78bc7608-e66c-461c-bf05-d99e1802cd07" attributeName="opacity" values="0;0;0;1;1;1" repeatCount="indefinite" dur="5s"/><animateTransform id="sdfaf5415-ee83-4b26-8df7-23e05957574b" attributeName="transform" attributeType="XML" type="translate" values="0 0;0 0;0 0;0 0;0 0;0 0" repeatCount="indefinite" dur="5s"/></g>
                  <g data-id="k21d1b245-aed7-4b89-8b24-3ba2b8d92906" data-class="keySig" class="keySig">
                     <g data-id="bbox-pi6o4rr" data-class="keySig" class="keySig bounding-box">
                        <rect x="798" y="527" height="823" width="502" fill="transparent"/>
                     </g>
                     <g data-id="k94602311-9b6a-45c9-b96d-0d69244f9ee1" data-class="keyAccid" class="keyAccid supplied" fill="#009900" stroke="#009900">
                        <use href="#E260-hdkanp7" transform="translate(798, 1134) scale(0.72, 0.72)"/>
                     <animate id="s24ab47bc-783b-41b6-8beb-92afe02b5c7e" attributeName="opacity" values="0;0;0;1;1;1" repeatCount="indefinite" dur="5s"/><animateTransform id="s97cd4ab1-3964-48b2-a292-94d233b7a93a" attributeName="transform" attributeType="XML" type="translate" values="0 0;0 0;0 0;0 0;0 0;0 0" repeatCount="indefinite" dur="5s"/></g>
                     <g data-id="k79b182d8-a08a-4f65-a4c7-283b5274ad2f" data-class="keyAccid" class="keyAccid supplied" fill="#009900" stroke="#009900">
                        <use href="#E260-hdkanp7" transform="translate(978, 864) scale(0.72, 0.72)"/>
                     <animate id="s058beecd-6b60-4173-8e68-9cbe9cd82f1f" attributeName="opacity" values="0;0;0;1;1;1" repeatCount="indefinite" dur="5s"/><animateTransform id="s0da6dfc1-e766-4f24-96f2-5904f6d0cf2d" attributeName="transform" attributeType="XML" type="translate" values="0 0;0 0;0 0;0 0;0 0;0 0" repeatCount="indefinite" dur="5s"/></g>
                     <g data-id="k1fdecc59-8d33-4989-98c1-795e86b12264" data-class="keyAccid" class="keyAccid supplied" fill="#009900" stroke="#009900">
                        <use href="#E260-hdkanp7" transform="translate(1158, 1224) scale(0.72, 0.72)"/>
                     <animate id="sde358387-b133-4d12-9168-4227a9a48a02" attributeName="opacity" values="0;0;0;1;1;1" repeatCount="indefinite" dur="5s"/><animateTransform id="sfcb907a7-5e57-4df5-8901-c52a55c5cce5" attributeName="transform" attributeType="XML" type="translate" values="0 0;0 0;0 0;0 0;0 0;0 0" repeatCount="indefinite" dur="5s"/></g>
                  </g>
                  <g data-id="mf9d6f10e-d896-44fd-bb8a-ec9287c70687" data-class="meterSig" class="meterSig supplied" fill="#009900" stroke="#009900">
                     <g data-id="bbox-tovp9ps" data-class="meterSig" class="meterSig bounding-box">
                        <rect x="1480" y="905" height="458" width="300" fill="transparent"/>
                     </g>
                     <use href="#E08B-hdkanp7" transform="translate(1480, 1134) scale(0.72, 0.72)"/>
                  <animate id="s850bab6c-f8e4-4744-8d70-4ee97d76d42c" attributeName="opacity" values="0;0;0;1;1;1" repeatCount="indefinite" dur="5s"/><animateTransform id="s9f9f046b-ace1-4873-8a25-9a1747a3bb20" attributeName="transform" attributeType="XML" type="translate" values="0 0;0 0;0 0;0 0;0 0;0 0" repeatCount="indefinite" dur="5s"/></g>
                  <g data-id="x51cbeb49-f949-4587-9a40-1a8ad7a7f6e0" data-class="layer" class="layer">
                     <g data-id="bbox-x51cbeb49-f949-4587-9a40-1a8ad7a7f6e0" data-class="layer" class="layer bounding-box"/>
                     <g data-id="xec668a01-7011-4126-ba05-518b69707e1d" data-class="note" class="note">
                        <g data-id="bbox-xec668a01-7011-4126-ba05-518b69707e1d" data-class="note" class="note bounding-box">
                           <rect x="2050" y="855" height="194" width="226" fill="transparent"/>
                        </g>
                        <g data-class="notehead" class="notehead">
                           <use href="#E0A3-hdkanp7" transform="translate(2050, 954) scale(0.72, 0.72)"/>
                        </g>
                        <g data-id="r1ffmqwb" data-class="stem" class="stem">
                           <g data-id="bbox-r1ffmqwb" data-class="stem" class="stem bounding-box">
                              <rect x="2258" y="405" height="530" width="18" fill="transparent"/>
                           </g>
                           <path d="M2267 926 L2267 414" stroke-width="18"><animate id="seae58ac3-233e-4b5c-822a-fb93e0163bd4" attributeName="d" values="M2267 926 L2267 390.9624060150376;M2267 926 L2267 414;M2267 926 L2267 414;M2267 926 L2267 414;M2267 926 L2267 414;M2267 926 L2267 414" repeatCount="indefinite" dur="5s"/></path>
                        </g>
                     <animateTransform id="sa6aff0b5-7529-4ce3-8b54-894668bc37dd" attributeName="transform" attributeType="XML" type="translate" values="108 263;108 263;0 0;0 0;0 0;0 0" repeatCount="indefinite" dur="5s"/></g>
                     <g data-id="xf9bd7825-18e5-4e4c-909e-753236101d75" data-class="note" class="note">
                        <g data-id="bbox-xf9bd7825-18e5-4e4c-909e-753236101d75" data-class="note" class="note bounding-box">
                           <rect x="3430" y="765" height="194" width="226" fill="transparent"/>
                        </g>
                        <g data-class="notehead" class="notehead">
                           <use href="#E0A3-hdkanp7" transform="translate(3430, 864) scale(0.72, 0.72)"/>
                        </g>
                        <g data-id="s1xv3a61" data-class="stem" class="stem">
                           <g data-id="bbox-s1xv3a61" data-class="stem" class="stem bounding-box">
                              <rect x="3638" y="345" height="500" width="18" fill="transparent"/>
                           </g>
                           <path d="M3647 836 L3647 354" stroke-width="18"><animate id="s5baa4a94-1230-402b-a048-f604740c2959" attributeName="d" values="M3647 836 L3647 568.4812030075188;M3647 836 L3647 354;M3647 836 L3647 354;M3647 836 L3647 354;M3647 836 L3647 354;M3647 836 L3647 354" repeatCount="indefinite" dur="5s"/></path>
                        </g>
                        <g data-id="xbbd8ab20-1066-4f5e-a0ba-7eceb82519f4" data-class="accid" class="accid">
                           <g data-id="bbox-xbbd8ab20-1066-4f5e-a0ba-7eceb82519f4" data-class="accid" class="accid bounding-box">
                              <rect x="3243" y="527" height="463" width="142" fill="transparent"/>
                           </g>
                           <use href="#E260-hdkanp7" transform="translate(3243, 864) scale(0.72, 0.72)"/>
                        <animateTransform id="s66e8c19a-6d72-4052-803a-59b44f40bece" attributeName="transform" attributeType="XML" type="translate" values="-117 -179;-117 -179;0 0;0 0;0 0;0 0" repeatCount="indefinite" dur="5s"/></g>
                     <animateTransform id="sd832215b-dd02-4704-8ec0-b712439e7de2" attributeName="transform" attributeType="XML" type="translate" values="82 264;82 264;0 0;0 0;0 0;0 0" repeatCount="indefinite" dur="5s"/></g>
                  </g>
                  <g data-id="xb2b6b31b-b327-4d43-a5bf-3cc8b571d52d" data-class="layer" class="layer">
                     <g data-id="bbox-xb2b6b31b-b327-4d43-a5bf-3cc8b571d52d" data-class="layer" class="layer bounding-box"/>
                     <g data-id="x9651a63f-06a8-4935-b973-cc150f01dc3d" data-class="note" class="note">
                        <g data-id="bbox-x9651a63f-06a8-4935-b973-cc150f01dc3d" data-class="note" class="note bounding-box">
                           <rect x="2050" y="1128" height="191" width="226" fill="transparent"/>
                        </g>
                        <g data-class="notehead" class="notehead">
                           <use href="#E0A4-hdkanp7" transform="translate(2050, 1224) scale(0.72, 0.72)"/>
                        </g>
                        <g data-id="t15hl5v8" data-class="stem" class="stem">
                           <g data-id="bbox-t15hl5v8" data-class="stem" class="stem bounding-box">
                              <rect x="2050" y="1243" height="560" width="18" fill="transparent"/>
                           </g>
                           <path d="M2059 1252 L2059 1794" stroke-width="18"><animate id="s1254f67d-43f9-4b0a-87df-9abad6f3c427" attributeName="d" values="M2059 1252 L2059 1697.8646616541353;M2059 1252 L2059 1794;M2059 1252 L2059 1794;M2059 1252 L2059 1794;M2059 1252 L2059 1794;M2059 1252 L2059 1794" repeatCount="indefinite" dur="5s"/></path>
                        </g>
                        <g data-id="x3f2e2a4c-01c5-492a-9dfc-0b7d4194b1d5" data-class="accid" class="accid supplied" fill="#009900" stroke="#009900">
                           <g data-id="bbox-x3f2e2a4c-01c5-492a-9dfc-0b7d4194b1d5" data-class="accid" class="accid bounding-box">
                              <rect x="2050" y="1224" height="0" width="0" fill="transparent"/>
                           </g>
                        <animate id="s9572a14a-966f-4992-b68e-9338fc8ba7da" attributeName="opacity" values="0;0;0;1;1;1" repeatCount="indefinite" dur="5s"/><animateTransform id="sd15775b5-967f-45a7-bab4-79d84b454a71" attributeName="transform" attributeType="XML" type="translate" values="0 0;0 0;0 0;0 0;0 0;0 0" repeatCount="indefinite" dur="5s"/></g>
                     <animateTransform id="s512a19a7-8ace-47ff-bf8e-82cf881ab00a" attributeName="transform" attributeType="XML" type="translate" values="379 260;379 260;0 0;0 0;0 0;0 0" repeatCount="indefinite" dur="5s"/></g>
                     <g data-id="xb52b49d4-3dd6-4606-8604-8924f5b5f055" data-class="note" class="note">
                        <g data-id="bbox-xb52b49d4-3dd6-4606-8604-8924f5b5f055" data-class="note" class="note bounding-box">
                           <rect x="2740" y="1218" height="191" width="226" fill="transparent"/>
                        </g>
                        <g data-class="notehead" class="notehead">
                           <use href="#E0A4-hdkanp7" transform="translate(2740, 1314) scale(0.72, 0.72)"/>
                        </g>
                        <g data-id="uzk39or" data-class="stem" class="stem">
                           <g data-id="bbox-uzk39or" data-class="stem" class="stem bounding-box">
                              <rect x="2740" y="1333" height="530" width="18" fill="transparent"/>
                           </g>
                           <path d="M2749 1342 L2749 1854" stroke-width="18"><animate id="s538affe7-cda3-4c1c-af1a-827d44971bb3" attributeName="d" values="M2749 1342 L2749 1787.8646616541353;M2749 1342 L2749 1854;M2749 1342 L2749 1854;M2749 1342 L2749 1854;M2749 1342 L2749 1854;M2749 1342 L2749 1854" repeatCount="indefinite" dur="5s"/></path>
                        </g>
                     <animateTransform id="s926799e0-b17b-44ef-9253-7a8c5f545002" attributeName="transform" attributeType="XML" type="translate" values="122 260;122 260;0 0;0 0;0 0;0 0" repeatCount="indefinite" dur="5s"/></g>
                     <g data-id="x80eaf5d5-4a25-42ec-b485-525a17959865" data-class="chord" class="chord" data-stem.dir="down">
                        <g data-id="bbox-x80eaf5d5-4a25-42ec-b485-525a17959865" data-class="chord" class="chord bounding-box" data-stem.dir="down"/>
                        <g data-id="vfszxls" data-class="stem" class="stem">
                           <g data-id="bbox-vfszxls" data-class="stem" class="stem bounding-box">
                              <rect x="3430" y="1153" height="710" width="18" fill="transparent"/>
                           </g>
                           <path d="M3439 1162 L3439 1854" stroke-width="18"/>
                        </g>
                        <g data-id="x0f934833-7571-4c97-9e97-80bc3e16dd5f" data-class="note" class="note">
                           <g data-id="bbox-x0f934833-7571-4c97-9e97-80bc3e16dd5f" data-class="note" class="note bounding-box">
                              <rect x="3430" y="1218" height="191" width="226" fill="transparent"/>
                           </g>
                           <g data-class="notehead" class="notehead">
                              <use href="#E0A4-hdkanp7" transform="translate(3430, 1314) scale(0.72, 0.72)"/>
                           </g>
                        </g>
                        <g data-id="x3f093feb-d3a6-465a-a27f-585255ea7feb" data-class="note" class="note">
                           <g data-id="bbox-x3f093feb-d3a6-465a-a27f-585255ea7feb" data-class="note" class="note bounding-box">
                              <rect x="3430" y="1038" height="191" width="226" fill="transparent"/>
                           </g>
                           <g data-class="notehead" class="notehead">
                              <use href="#E0A4-hdkanp7" transform="translate(3430, 1134) scale(0.72, 0.72)"/>
                           </g>
                           <g data-id="x7db3b4fb-1761-41a0-baf9-581741c4e1fa" data-class="accid" class="accid supplied" fill="#009900" stroke="#009900">
                              <g data-id="bbox-x7db3b4fb-1761-41a0-baf9-581741c4e1fa" data-class="accid" class="accid bounding-box">
                                 <rect x="3430" y="1134" height="0" width="0" fill="transparent"/>
                              </g>
                           <animate id="se1a5373d-f14c-46df-b810-194294a13520" attributeName="opacity" values="0;0;0;1;1;1" repeatCount="indefinite" dur="5s"/><animateTransform id="sf2210135-895f-44e2-ade9-c2c711a671d1" attributeName="transform" attributeType="XML" type="translate" values="0 0;0 0;0 0;0 0;0 0;0 0" repeatCount="indefinite" dur="5s"/></g>
                        </g>
                     </g>
                     <g data-id="x33da3242-91eb-44cc-8141-c372383fd374" data-class="note" class="note">
                        <g data-id="bbox-x33da3242-91eb-44cc-8141-c372383fd374" data-class="note" class="note bounding-box">
                           <rect x="4120" y="1218" height="191" width="226" fill="transparent"/>
                        </g>
                        <g data-class="notehead" class="notehead">
                           <use href="#E0A4-hdkanp7" transform="translate(4120, 1314) scale(0.72, 0.72)"/>
                        </g>
                        <g data-id="w1v1dcdp" data-class="stem" class="stem">
                           <g data-id="bbox-w1v1dcdp" data-class="stem" class="stem bounding-box">
                              <rect x="4120" y="1333" height="530" width="18" fill="transparent"/>
                           </g>
                           <path d="M4129 1342 L4129 1854" stroke-width="18"><animate id="s63d67fcf-13e2-441e-8d61-0974ea1812ca" attributeName="d" values="M4129 1342 L4129 1698.6917293233082;M4129 1342 L4129 1854;M4129 1342 L4129 1854;M4129 1342 L4129 1854;M4129 1342 L4129 1854;M4129 1342 L4129 1854" repeatCount="indefinite" dur="5s"/></path>
                        </g>
                     <animateTransform id="s2d161542-7583-436f-85ba-6820ed5b2fc0" attributeName="transform" attributeType="XML" type="translate" values="474 260;474 260;0 0;0 0;0 0;0 0" repeatCount="indefinite" dur="5s"/></g>
                  </g>
               </g>
               <g data-id="xf9a1f7d7-5d7c-4f38-9360-c624b79300d4" data-class="staff" class="staff">
                  <g data-id="bbox-xf9a1f7d7-5d7c-4f38-9360-c624b79300d4" data-class="staff" class="staff bounding-box">
                     <rect x="-7" y="2203" height="1098" width="4836" fill="transparent"/>
                  </g>
                  <path d="M0 2574 L4823 2574" stroke-width="13" class="rastrum"><animate id="s2553ff4a-2779-4dd2-beba-841949583209" attributeName="d" values="M0 2327 L6976 2327;M0 2327 L6976 2327;M0 2574 L4823 2574;M0 2574 L4823 2574;M0 2574 L4823 2574;M0 2574 L4823 2574" repeatCount="indefinite" dur="5s"/></path>
                  <path d="M0 2754 L4823 2754" stroke-width="13" class="rastrum"><animate id="se8c6695b-2614-4868-849d-386c2d37e3ce" attributeName="d" values="M0 2503 L6976 2503;M0 2503 L6976 2503;M0 2754 L4823 2754;M0 2754 L4823 2754;M0 2754 L4823 2754;M0 2754 L4823 2754" repeatCount="indefinite" dur="5s"/></path>
                  <path d="M0 2934 L4823 2934" stroke-width="13" class="rastrum"><animate id="sba692a7e-d266-420d-b6ef-8932e214623b" attributeName="d" values="M0 2678 L6976 2678;M0 2678 L6976 2678;M0 2934 L4823 2934;M0 2934 L4823 2934;M0 2934 L4823 2934;M0 2934 L4823 2934" repeatCount="indefinite" dur="5s"/></path>
                  <path d="M0 3114 L4823 3114" stroke-width="13" class="rastrum"><animate id="s1f918974-dd78-41ab-a73f-c8f76e977366" attributeName="d" values="M0 2854 L6976 2854;M0 2854 L6976 2854;M0 3114 L4823 3114;M0 3114 L4823 3114;M0 3114 L4823 3114;M0 3114 L4823 3114" repeatCount="indefinite" dur="5s"/></path>
                  <path d="M0 3294 L4823 3294" stroke-width="13" class="rastrum"><animate id="se93d03ec-7ca8-4d77-936a-07a4974073e6" attributeName="d" values="M0 3029 L6976 3029;M0 3029 L6976 3029;M0 3294 L4823 3294;M0 3294 L4823 3294;M0 3294 L4823 3294;M0 3294 L4823 3294" repeatCount="indefinite" dur="5s"/></path>
                  <g data-id="cd7d72b86-f1ac-4bf4-8128-f0e49e572e3f" data-class="clef" class="clef supplied" fill="#009900" stroke="#009900">
                     <g data-id="bbox-u6bfrsw" data-class="clef" class="clef bounding-box">
                        <rect x="119" y="2573" height="599" width="499" fill="transparent"/>
                     </g>
                     <use href="#E062-hdkanp7" transform="translate(117, 2754) scale(0.72, 0.72)"/>
                  <animate id="sbb162d8c-614d-4486-b766-6aee49b19c7a" attributeName="opacity" values="0;0;0;1;1;1" repeatCount="indefinite" dur="5s"/><animateTransform id="sb95d6f32-3c77-4295-a54e-0766d31fa2a5" attributeName="transform" attributeType="XML" type="translate" values="0 0;0 0;0 0;0 0;0 0;0 0" repeatCount="indefinite" dur="5s"/></g>
                  <g data-id="k6c7a6414-cfd4-47af-a8d8-b5cbbf1a1ffb" data-class="keySig" class="keySig">
                     <g data-id="bbox-v14yn464" data-class="keySig" class="keySig bounding-box">
                        <rect x="798" y="2507" height="823" width="502" fill="transparent"/>
                     </g>
                     <g data-id="k1cd03399-7764-41b5-b11a-1b122c09a484" data-class="keyAccid" class="keyAccid supplied" fill="#009900" stroke="#009900">
                        <use href="#E260-hdkanp7" transform="translate(798, 3114) scale(0.72, 0.72)"/>
                     <animate id="s3d03fd06-d65d-419a-9683-18c732fcd1e6" attributeName="opacity" values="0;0;0;1;1;1" repeatCount="indefinite" dur="5s"/><animateTransform id="sbd5271d7-de35-4e88-8c2e-9f8a9cf0bcb2" attributeName="transform" attributeType="XML" type="translate" values="0 0;0 0;0 0;0 0;0 0;0 0" repeatCount="indefinite" dur="5s"/></g>
                     <g data-id="k6bcdc677-1a47-4e17-a7a0-ace34fc8a7cd" data-class="keyAccid" class="keyAccid supplied" fill="#009900" stroke="#009900">
                        <use href="#E260-hdkanp7" transform="translate(978, 2844) scale(0.72, 0.72)"/>
                     <animate id="sc90a0f05-ac16-4938-a555-dbc490821462" attributeName="opacity" values="0;0;0;1;1;1" repeatCount="indefinite" dur="5s"/><animateTransform id="s45e20df3-3c27-4173-8f14-67f3857a6dad" attributeName="transform" attributeType="XML" type="translate" values="0 0;0 0;0 0;0 0;0 0;0 0" repeatCount="indefinite" dur="5s"/></g>
                     <g data-id="k49de600d-ab8a-4372-97c2-5cae99498e4e" data-class="keyAccid" class="keyAccid supplied" fill="#009900" stroke="#009900">
                        <use href="#E260-hdkanp7" transform="translate(1158, 3204) scale(0.72, 0.72)"/>
                     <animate id="s5de96cb6-d770-4bdd-a29a-876d5934a20c" attributeName="opacity" values="0;0;0;1;1;1" repeatCount="indefinite" dur="5s"/><animateTransform id="s9e5cb3bf-88e0-4d0f-9d63-6f657b4ecdcf" attributeName="transform" attributeType="XML" type="translate" values="0 0;0 0;0 0;0 0;0 0;0 0" repeatCount="indefinite" dur="5s"/></g>
                  </g>
                  <g data-id="kf9d6f10e-d896-44fd-bb8a-ec9287c70687" data-class="meterSig" class="meterSig supplied" fill="#009900" stroke="#009900">
                     <g data-id="bbox-zu8xktr" data-class="meterSig" class="meterSig bounding-box">
                        <rect x="1480" y="2705" height="458" width="300" fill="transparent"/>
                     </g>
                     <use href="#E08B-hdkanp7" transform="translate(1480, 2934) scale(0.72, 0.72)"/>
                  <animate id="s9151d5c2-a067-489c-944f-06916dafda5a" attributeName="opacity" values="0;0;0;1;1;1" repeatCount="indefinite" dur="5s"/><animateTransform id="sdf503a06-ada5-47bf-a629-3110f4503530" attributeName="transform" attributeType="XML" type="translate" values="0 0;0 0;0 0;0 0;0 0;0 0" repeatCount="indefinite" dur="5s"/></g>
                  <g data-class="ledgerLines" class="ledgerLines above">
                     <g data-class="lineDash" class="lineDash" data-related="#x8de411cd-4e30-4fe7-921e-9b325f8d62eb">
                        <path d="M2002 2394 L2324 2394" stroke-width="22"/>
                     <animateTransform id="s3f38f862-a93e-4787-8759-01625529b471" attributeName="transform" attributeType="XML" type="translate" values="162 -236;162 -236;0 0;0 0;0 0;0 0" repeatCount="indefinite" dur="5s"/></g>
                     <g data-class="lineDash" class="lineDash" data-related="#xf4971771-c946-4c14-af8c-2528f7fcdf0a">
                        <path d="M2692 2394 L3014 2394" stroke-width="22"/>
                     <animateTransform id="s77e98655-5815-4332-9c35-7ae7955f1f29" attributeName="transform" attributeType="XML" type="translate" values="-40 -238;-40 -238;0 0;0 0;0 0;0 0" repeatCount="indefinite" dur="5s"/></g>
                     <g data-class="lineDash" class="lineDash" data-related="#x95948028-3e6b-42c0-87bb-1e614a5492b9">
                        <path d="M4072 2394 L4394 2394" stroke-width="22"/>
                     <animateTransform id="s1f819dec-3758-4b53-852b-853d9d635fb6" attributeName="transform" attributeType="XML" type="translate" values="463 -238;463 -238;0 0;0 0;0 0;0 0" repeatCount="indefinite" dur="5s"/></g>
                     <g data-class="lineDash" class="lineDash" data-related="#x8de411cd-4e30-4fe7-921e-9b325f8d62eb">
                        <path d="M2002 2214 L2324 2214" stroke-width="22"/>
                     <animateTransform id="s64e1bdc0-d552-4acc-91b3-a898bf4f68eb" attributeName="transform" attributeType="XML" type="translate" values="162 -236;162 -236;0 0;0 0;0 0;0 0" repeatCount="indefinite" dur="5s"/></g>
                     <g data-class="lineDash" class="lineDash" data-related="#xf4971771-c946-4c14-af8c-2528f7fcdf0a">
                        <path d="M2692 2214 L3014 2214" stroke-width="22"/>
                     <animateTransform id="s333e825d-a87b-40ce-b6ce-9f2cdf17f17e" attributeName="transform" attributeType="XML" type="translate" values="-40 -238;-40 -238;0 0;0 0;0 0;0 0" repeatCount="indefinite" dur="5s"/></g>
                     <g data-class="lineDash" class="lineDash" data-related="#x95948028-3e6b-42c0-87bb-1e614a5492b9">
                        <path d="M4072 2214 L4394 2214" stroke-width="22"/>
                     <animateTransform id="s32c64ae8-d17f-4ee7-981c-0f2d2759c8c9" attributeName="transform" attributeType="XML" type="translate" values="463 -238;463 -238;0 0;0 0;0 0;0 0" repeatCount="indefinite" dur="5s"/></g>
                  </g>
                  <g data-id="xd5b84640-6e0b-4e22-a81e-49cc70a4abb8" data-class="layer" class="layer">
                     <g data-id="bbox-xd5b84640-6e0b-4e22-a81e-49cc70a4abb8" data-class="layer" class="layer bounding-box"/>
                     <g data-id="x8de411cd-4e30-4fe7-921e-9b325f8d62eb" data-class="note" class="note">
                        <g data-id="bbox-x8de411cd-4e30-4fe7-921e-9b325f8d62eb" data-class="note" class="note bounding-box">
                           <rect x="2050" y="2028" height="191" width="226" fill="transparent"/>
                        </g>
                        <g data-class="notehead" class="notehead">
                           <use href="#E0A4-hdkanp7" transform="translate(2050, 2124) scale(0.72, 0.72)"/>
                        </g>
                        <g data-id="x1ngd42e" data-class="stem" class="stem">
                           <g data-id="bbox-x1ngd42e" data-class="stem" class="stem bounding-box">
                              <rect x="2258" y="1665" height="440" width="18" fill="transparent"/>
                           </g>
                           <path d="M2267 2096 L2267 1674" stroke-width="18"><animate id="s7c2a557e-3bb6-45ac-ade6-daea64dd158a" attributeName="d" values="M2267 2096 L2267 2008.1804511278197;M2267 2096 L2267 1674;M2267 2096 L2267 1674;M2267 2096 L2267 1674;M2267 2096 L2267 1674;M2267 2096 L2267 1674" repeatCount="indefinite" dur="5s"/></path>
                        </g>
                     <animateTransform id="sd6fe5f49-f121-4103-b3a2-33a0afd6dcf6" attributeName="transform" attributeType="XML" type="translate" values="162 -236;162 -236;0 0;0 0;0 0;0 0" repeatCount="indefinite" dur="5s"/></g>
                     <g data-id="xf4971771-c946-4c14-af8c-2528f7fcdf0a" data-class="note" class="note">
                        <g data-id="bbox-xf4971771-c946-4c14-af8c-2528f7fcdf0a" data-class="note" class="note bounding-box">
                           <rect x="2740" y="2118" height="191" width="226" fill="transparent"/>
                        </g>
                        <g data-class="notehead" class="notehead">
                           <use href="#E0A4-hdkanp7" transform="translate(2740, 2214) scale(0.72, 0.72)"/>
                        </g>
                        <g data-id="yik4tv1" data-class="stem" class="stem">
                           <g data-id="bbox-yik4tv1" data-class="stem" class="stem bounding-box">
                              <rect x="2948" y="1755" height="440" width="18" fill="transparent"/>
                           </g>
                           <path d="M2957 2186 L2957 1764" stroke-width="18"><animate id="s793aa013-ef0d-4286-ac25-1abdfd4f417c" attributeName="d" values="M2957 2186 L2957 2010.360902255639;M2957 2186 L2957 1764;M2957 2186 L2957 1764;M2957 2186 L2957 1764;M2957 2186 L2957 1764;M2957 2186 L2957 1764" repeatCount="indefinite" dur="5s"/></path>
                        </g>
                        <g data-id="x8408e540-bb7c-4dcc-b6ea-d11d9742991f" data-class="accid" class="accid supplied" fill="#009900" stroke="#009900">
                           <g data-id="bbox-x8408e540-bb7c-4dcc-b6ea-d11d9742991f" data-class="accid" class="accid bounding-box">
                              <rect x="2740" y="2214" height="0" width="0" fill="transparent"/>
                           </g>
                        <animate id="s9d1a7d23-cdea-4cc5-a480-825f17acfe2b" attributeName="opacity" values="0;0;0;1;1;1" repeatCount="indefinite" dur="5s"/><animateTransform id="s3d2f8c09-a85c-4e18-8efb-d927e1c310f3" attributeName="transform" attributeType="XML" type="translate" values="0 0;0 0;0 0;0 0;0 0;0 0" repeatCount="indefinite" dur="5s"/></g>
                     <animateTransform id="s99f62aa5-0962-42a7-85ef-c851a73fb2f3" attributeName="transform" attributeType="XML" type="translate" values="-40 -238;-40 -238;0 0;0 0;0 0;0 0" repeatCount="indefinite" dur="5s"/></g>
                     <g data-id="xcf78f9ab-9be8-4c7e-9b3d-3680f592e807" data-class="space" class="space">
                        <g data-id="bbox-xcf78f9ab-9be8-4c7e-9b3d-3680f592e807" data-class="space" class="space bounding-box">
                           <rect x="3430" y="2934" height="0" width="0" fill="transparent"/>
                        </g>
                     </g>
                     <g data-id="x95948028-3e6b-42c0-87bb-1e614a5492b9" data-class="note" class="note">
                        <g data-id="bbox-x95948028-3e6b-42c0-87bb-1e614a5492b9" data-class="note" class="note bounding-box">
                           <rect x="4120" y="2118" height="191" width="226" fill="transparent"/>
                        </g>
                        <g data-class="notehead" class="notehead">
                           <use href="#E0A4-hdkanp7" transform="translate(4120, 2214) scale(0.72, 0.72)"/>
                        </g>
                        <g data-id="z674dzp" data-class="stem" class="stem">
                           <g data-id="bbox-z674dzp" data-class="stem" class="stem bounding-box">
                              <rect x="4328" y="1755" height="440" width="18" fill="transparent"/>
                           </g>
                           <path d="M4337 2186 L4337 1764" stroke-width="18"><animate id="s31e9a629-3941-4c6f-a8df-da58b6dee272" attributeName="d" values="M4337 2186 L4337 1922.5413533834587;M4337 2186 L4337 1764;M4337 2186 L4337 1764;M4337 2186 L4337 1764;M4337 2186 L4337 1764;M4337 2186 L4337 1764" repeatCount="indefinite" dur="5s"/></path>
                        </g>
                        <g data-id="x19b38527-8536-4e1e-87a8-f7c1b159ebbb" data-class="accid" class="accid supplied" fill="#009900" stroke="#009900">
                           <g data-id="bbox-x19b38527-8536-4e1e-87a8-f7c1b159ebbb" data-class="accid" class="accid bounding-box">
                              <rect x="4120" y="2214" height="0" width="0" fill="transparent"/>
                           </g>
                        <animate id="s87acef9f-f1d5-4919-8ee9-0f93cd3bd3bf" attributeName="opacity" values="0;0;0;1;1;1" repeatCount="indefinite" dur="5s"/><animateTransform id="s9d8be390-d7df-40c6-8934-e2bfec9c335c" attributeName="transform" attributeType="XML" type="translate" values="0 0;0 0;0 0;0 0;0 0;0 0" repeatCount="indefinite" dur="5s"/></g>
                     <animateTransform id="s1ab68d8d-4377-436b-bc1d-c9b20fefa187" attributeName="transform" attributeType="XML" type="translate" values="463 -238;463 -238;0 0;0 0;0 0;0 0" repeatCount="indefinite" dur="5s"/></g>
                  </g>
                  <g data-id="x84bffb9b-66f2-41c2-91af-0eb7585ec2fb" data-class="layer" class="layer">
                     <g data-id="bbox-x84bffb9b-66f2-41c2-91af-0eb7585ec2fb" data-class="layer" class="layer bounding-box"/>
                     <g data-id="x5fefa553-4012-48f6-90e2-cbf01c554103" data-class="note" class="note">
                        <g data-id="bbox-x5fefa553-4012-48f6-90e2-cbf01c554103" data-class="note" class="note bounding-box">
                           <rect x="2050" y="2385" height="194" width="226" fill="transparent"/>
                        </g>
                        <g data-class="notehead" class="notehead">
                           <use href="#E0A3-hdkanp7" transform="translate(2050, 2484) scale(0.72, 0.72)"/>
                        </g>
                        <g data-id="a74kwdc" data-class="stem" class="stem">
                           <g data-id="bbox-a74kwdc" data-class="stem" class="stem bounding-box">
                              <rect x="2050" y="2500" height="623" width="18" fill="transparent"/>
                           </g>
                           <path d="M2059 2509 L2059 3114" stroke-width="18"><animate id="sadc34bc4-8672-4bc5-8131-169eacc46b68" attributeName="d" values="M2059 2509 L2059 4001.9323308270677;M2059 2509 L2059 3114;M2059 2509 L2059 3114;M2059 2509 L2059 3114;M2059 2509 L2059 3114;M2059 2509 L2059 3114" repeatCount="indefinite" dur="5s"/></path>
                        </g>
                        <g data-id="x74277bdb-5bc3-493d-bd11-aa294c81e99f" data-class="accid" class="accid supplied" fill="#009900" stroke="#009900">
                           <g data-id="bbox-x74277bdb-5bc3-493d-bd11-aa294c81e99f" data-class="accid" class="accid bounding-box">
                              <rect x="2050" y="2484" height="0" width="0" fill="transparent"/>
                           </g>
                        <animate id="s750bd620-7a5d-420e-9aec-d90c7162d4a9" attributeName="opacity" values="0;0;0;1;1;1" repeatCount="indefinite" dur="5s"/><animateTransform id="s39302f0c-6bfd-40ce-b6ab-72386a6d18cb" attributeName="transform" attributeType="XML" type="translate" values="0 0;0 0;0 0;0 0;0 0;0 0" repeatCount="indefinite" dur="5s"/></g>
                     <animateTransform id="sbb0f5618-b857-4b9d-93d1-9f27360380b8" attributeName="transform" attributeType="XML" type="translate" values="476 -245;476 -245;0 0;0 0;0 0;0 0" repeatCount="indefinite" dur="5s"/></g>
                     <g data-id="x4102cdc9-33e2-448a-bf32-e061f948715a" data-class="note" class="note">
                        <g data-id="bbox-x4102cdc9-33e2-448a-bf32-e061f948715a" data-class="note" class="note bounding-box">
                           <rect x="3430" y="2745" height="194" width="226" fill="transparent"/>
                        </g>
                        <g data-class="notehead" class="notehead">
                           <use href="#E0A3-hdkanp7" transform="translate(3430, 2844) scale(0.72, 0.72)"/>
                        </g>
                        <g data-id="bingox6" data-class="stem" class="stem">
                           <g data-id="bbox-bingox6" data-class="stem" class="stem bounding-box">
                              <rect x="3430" y="2860" height="623" width="18" fill="transparent"/>
                           </g>
                           <path d="M3439 2869 L3439 3474" stroke-width="18"><animate id="sed3344d1-856e-463f-b08b-f04083d14cfc" attributeName="d" values="M3439 2869 L3439 3659.375939849624;M3439 2869 L3439 3474;M3439 2869 L3439 3474;M3439 2869 L3439 3474;M3439 2869 L3439 3474;M3439 2869 L3439 3474" repeatCount="indefinite" dur="5s"/></path>
                        </g>
                        <g data-id="x0277f879-006f-4ac7-9b19-d19005f4d0af" data-class="accid" class="accid supplied" fill="#009900" stroke="#009900">
                           <g data-id="bbox-x0277f879-006f-4ac7-9b19-d19005f4d0af" data-class="accid" class="accid bounding-box">
                              <rect x="3430" y="2844" height="0" width="0" fill="transparent"/>
                           </g>
                        <animate id="s1ea32e24-7501-4845-87c7-2d8a7a44486e" attributeName="opacity" values="0;0;0;1;1;1" repeatCount="indefinite" dur="5s"/><animateTransform id="sd259ed84-effd-4a0e-847d-f62a3a42df44" attributeName="transform" attributeType="XML" type="translate" values="0 0;0 0;0 0;0 0;0 0;0 0" repeatCount="indefinite" dur="5s"/></g>
                     <animateTransform id="s7fc9b97e-aef7-45d6-b15a-4f5040175d26" attributeName="transform" attributeType="XML" type="translate" values="829 -254;829 -254;0 0;0 0;0 0;0 0" repeatCount="indefinite" dur="5s"/></g>
                  </g>
               </g>
               <g data-id="x482b1c01-4855-4b04-ac41-e0aa8585c252" data-class="dir" class="dir">
                  <g data-id="bbox-x482b1c01-4855-4b04-ac41-e0aa8585c252" data-class="dir" class="dir bounding-box"/>
                  <text x="1870" y="276" font-size="0px"><tspan x="1870" y="276" data-class="text" class="text"><tspan font-size="405px">fugha<animate id="s85a8e9d2-d91d-47d8-82d4-177094790f8b" attributeName="opacity" values="1;1;1;1;1;1" repeatCount="indefinite" dur="5s"/></tspan></tspan></text>
               <animateTransform id="s5d83bacd-ae4a-4dc6-a0b3-1fd36b8341bb" attributeName="transform" attributeType="XML" type="translate" values="-1823 1731;-1823 1731;0 0;0 0;0 0;0 0" repeatCount="indefinite" dur="5s"/></g>
               <g data-id="z119gz1m" data-class="barLine" class="barLine">
                  <g data-id="bbox-z119gz1m" data-class="barLine" class="barLine bounding-box">
                     <rect x="4796" y="761" height="2547" width="27" fill="transparent"/>
                  </g>
                  
                  
                  
               <path d="M4810 774 L4810 3294" stroke-width="27" fill="#009900" stroke="#009900" class="supplied"><animate id="s4e8a5436-9694-41be-a542-ee4e8526b43c" attributeName="opacity" values="0;0;0;1;1;1" repeatCount="indefinite" dur="5s"/><animate id="sca9a1a79-8629-4d38-bd03-e9ca09f34053" attributeName="d" values=";;M4810 774 L4810 3294;M4810 774 L4810 3294;M4810 774 L4810 3294;M4810 774 L4810 3294" repeatCount="indefinite" dur="5s"/></path></g>
            </g>
            <g data-id="l10in4lw" data-class="systemMilestoneEnd" class="systemMilestoneEnd xb8eed2eb-3d73-42db-8a95-a7f2477d3af4"/>
         </g>
         <g data-id="mfwqjzl" data-class="pageMilestoneEnd" class="pageMilestoneEnd se8d5e414-5657-4cdf-a1b5-ec11437ee0e9">
            <g data-id="bbox-mfwqjzl" data-class="pageMilestoneEnd" class="pageMilestoneEnd bounding-box"/>
         </g>
         <g data-id="n1h6ka6n" data-class="pageMilestoneEnd" class="pageMilestoneEnd xa3487a8b-42e3-4d1c-9dbc-5838c52bb563">
            <g data-id="bbox-n1h6ka6n" data-class="pageMilestoneEnd" class="pageMilestoneEnd bounding-box"/>
         </g>
      </g>
   </svg>
</svg>